<svg width="10" height="13" viewBox="0 0 10 13" fill="none" xmlns="http://www.w3.org/2000/svg">
<path d="M9.99694 4.57344C10.0347 5.63626 9.72249 6.68317 9.10531 7.56403C8.75094 8.06692 8.42141 8.58491 8.07768 9.09465C7.55793 9.86689 7.03604 10.6383 6.51204 11.4087C6.22855 11.8295 5.94507 12.255 5.6474 12.6662C5.57752 12.7698 5.48171 12.8548 5.36882 12.9131C5.25594 12.9714 5.12964 13.0013 5.00161 13C4.87357 12.9987 4.74793 12.9662 4.63634 12.9056C4.52474 12.845 4.43078 12.7581 4.36316 12.6532C4.00879 12.1564 3.6764 11.6488 3.33479 11.1479C2.81505 10.3803 2.29364 9.61239 1.77059 8.84425C1.52324 8.4782 1.2745 8.11207 1.03282 7.7426C0.84359 7.45386 0.646544 7.16789 0.483535 6.86478C0.241129 6.39521 0.0891194 5.8871 0.0349069 5.36506C-0.051705 4.66976 0.0233503 3.96451 0.254614 3.30074C0.430194 2.78341 0.698901 2.30008 1.0484 1.87285C1.47743 1.33721 2.01802 0.894257 2.63527 0.572748C3.27659 0.241052 3.98508 0.048314 4.71143 0.00797361C5.43779 -0.0323668 6.16453 0.080713 6.84102 0.339221C7.51751 0.597729 8.1275 0.995508 8.62848 1.50485C9.12945 2.01419 9.50935 2.6228 9.74176 3.28838C9.89837 3.70052 9.98457 4.13461 9.99694 4.57344ZM7.76155 4.69455C7.76883 4.16394 7.61209 3.64318 7.31132 3.19901C7.01055 2.75483 6.57944 2.40737 6.07306 2.20092C5.56668 1.99448 5.00805 1.93846 4.46854 2.04006C3.92903 2.14166 3.43311 2.39617 3.04423 2.77121C2.65534 3.14625 2.39116 3.62474 2.28536 4.14548C2.17956 4.66621 2.23698 5.20557 2.4503 5.69464C2.66362 6.18371 3.02312 6.60035 3.48291 6.89117C3.94269 7.18199 4.48186 7.33381 5.0315 7.32732C5.75324 7.32144 6.44378 7.04229 6.95448 6.5499C7.46519 6.05752 7.75525 5.39131 7.76228 4.69455H7.76155Z" fill="#7956FB"/>
</svg>
