<svg width="375" height="599" viewBox="0 0 375 599" fill="none" xmlns="http://www.w3.org/2000/svg">
<path d="M-76.622 521.078L-240.781 522C-240.781 522 -306.061 418.825 -264.785 290.717C-233.254 192.835 -172.638 219.396 -118.375 203.507C-25.4023 176.274 -47.1391 97.4258 25.3102 69.8345C131.14 29.5539 160.902 138.108 197.096 172.716C244.985 218.517 287.693 170.797 368.187 277.301C420.41 346.398 338.067 518.757 338.067 518.757" fill="white"/>
<path d="M-76.622 521.078L-240.781 522C-240.781 522 -306.061 418.825 -264.785 290.717C-233.254 192.835 -172.638 219.396 -118.375 203.507C-25.4023 176.274 -47.1391 97.4258 25.3102 69.8345C131.14 29.5539 160.902 138.108 197.096 172.716C244.985 218.517 287.693 170.797 368.187 277.301C420.41 346.398 338.067 518.757 338.067 518.757" fill="url(#paint0_radial_19_16467)"/>
<path d="M173.672 434.894C173.672 436.012 173.486 437.13 173.362 438.248C173.238 439.429 173.176 440.671 172.929 441.851C172.743 442.845 172.433 443.839 172.185 444.771C171.875 445.889 171.627 447.069 171.193 448.188C170.883 449.119 170.388 450.051 170.016 450.983C169.52 452.163 168.962 453.406 168.343 454.586C167.909 455.456 167.351 456.263 166.793 457.133C165.988 458.5 165.058 459.804 164.066 461.171C163.137 462.475 162.145 463.718 161.03 464.96C160.782 465.271 160.534 465.581 160.286 465.83C158.799 467.445 157.188 469.06 155.452 470.613C154.337 471.607 153.097 472.601 151.92 473.533C150.866 474.402 149.875 475.272 148.697 476.08C147.396 477.012 145.97 477.943 144.545 478.875C143.12 479.807 141.756 480.801 140.207 481.671C136.736 483.658 133.08 485.46 129.362 487.137C128.308 487.634 127.193 488.069 126.077 488.566C123.164 489.808 120.128 490.927 117.029 491.983C115.914 492.355 114.86 492.79 113.745 493.101C111.823 493.722 109.778 494.281 107.795 494.778C106.308 495.213 104.821 495.648 103.271 496.02C101.164 496.517 99.0571 496.952 96.888 497.387C95.4626 497.698 94.0373 498.008 92.5499 498.257C88.2738 499.002 83.8737 499.623 79.4737 500.058C78.1103 500.183 76.7469 500.307 75.3835 500.431C72.7806 500.617 70.2398 500.866 67.6369 500.928C65.9636 500.99 64.2904 501.052 62.6171 501.052C60.51 501.114 58.403 501.114 56.2959 501.052C54.5606 501.052 52.7634 500.99 51.0282 500.928C49.107 500.866 47.1239 500.742 45.2028 500.617C43.4055 500.493 41.6703 500.369 39.8731 500.183C37.952 499.996 36.0308 499.81 34.1096 499.561C32.3744 499.313 30.6392 499.126 28.9659 498.816C26.9208 498.505 24.8757 498.133 22.8926 497.76C21.2813 497.449 19.732 497.139 18.1207 496.766C15.7037 496.207 13.3488 495.648 10.9938 495.026C9.69238 494.654 8.32898 494.343 7.02756 493.97C2.81341 492.728 -1.33876 491.361 -5.30502 489.808C-7.28815 489.063 -9.2093 488.193 -11.1305 487.324C-12.122 486.889 -13.1136 486.454 -14.1052 486.019C-17.0179 484.652 -19.8066 483.161 -22.5334 481.608C-45.1535 468.501 -56.4945 451.294 -56.4325 434.086V445.641C-56.4945 462.848 -45.1535 480.055 -22.5334 493.163C-19.8066 494.716 -17.0179 496.207 -14.1052 497.573C-13.1136 498.008 -12.122 498.443 -11.1305 498.878C-9.39522 499.623 -7.72196 500.431 -5.92475 501.114C-5.73883 501.176 -5.49094 501.239 -5.30502 501.301C-1.33876 502.854 2.81341 504.22 7.02756 505.463C7.33742 505.587 7.64729 505.711 8.01912 505.773C9.01068 506.022 10.0023 506.27 10.9938 506.519C13.3488 507.14 15.7037 507.761 18.1207 508.258C18.7404 508.382 19.3601 508.569 20.0418 508.755C20.9714 508.941 21.963 509.066 22.8926 509.252C24.9377 509.625 26.9208 509.998 28.9659 510.308C29.7716 510.432 30.5772 510.619 31.3828 510.743C32.2505 510.867 33.1801 510.929 34.1096 511.054C36.0308 511.302 37.952 511.488 39.8731 511.675C40.8027 511.737 41.6703 511.923 42.5999 511.985C43.4675 512.048 44.3351 512.048 45.2028 512.11C47.1239 512.234 49.107 512.358 51.0282 512.42C52.0198 512.482 52.9493 512.545 53.9409 512.607C54.7466 512.607 55.4902 512.607 56.2959 512.607C58.403 512.607 60.51 512.607 62.5551 512.607C63.6087 512.607 64.6622 512.607 65.7157 512.607C66.3355 512.607 66.9552 512.482 67.5749 512.482C70.1778 512.358 72.7806 512.172 75.3215 511.985C76.375 511.923 77.4286 511.861 78.4202 511.799C78.73 511.737 79.0399 511.675 79.4117 511.675C83.8118 511.24 88.2119 510.619 92.488 509.873C92.6739 509.811 92.9218 509.811 93.1077 509.811C94.3471 509.563 95.5866 509.252 96.826 509.004C98.9331 508.569 101.102 508.134 103.147 507.637C104.697 507.264 106.184 506.829 107.671 506.395C109.654 505.835 111.638 505.339 113.559 504.717C113.993 504.593 114.426 504.469 114.86 504.345C115.542 504.096 116.224 503.785 116.905 503.599C120.004 502.543 122.979 501.425 125.953 500.183C127.069 499.748 128.122 499.251 129.238 498.754C132.956 497.076 136.613 495.275 140.083 493.287C140.579 493.039 141.013 492.728 141.508 492.48C142.562 491.858 143.492 491.175 144.483 490.492C145.908 489.56 147.334 488.69 148.635 487.696C149.751 486.889 150.804 486.019 151.858 485.149C153.035 484.155 154.275 483.224 155.39 482.23C155.638 482.043 155.886 481.857 156.134 481.608C157.621 480.242 158.985 478.875 160.286 477.446C160.534 477.136 160.782 476.825 161.03 476.577C161.773 475.707 162.579 474.837 163.261 473.968C163.571 473.595 163.757 473.16 164.066 472.787C165.058 471.483 165.926 470.116 166.793 468.749C167.165 468.19 167.599 467.631 167.909 467.072C168.095 466.762 168.157 466.513 168.343 466.203C168.962 465.022 169.52 463.842 170.016 462.6C170.326 461.916 170.76 461.233 171.007 460.487C171.069 460.239 171.131 459.99 171.193 459.804C171.627 458.686 171.875 457.506 172.185 456.387C172.371 455.58 172.681 454.834 172.867 454.027C172.929 453.841 172.929 453.592 172.929 453.406C173.176 452.225 173.238 450.983 173.362 449.803C173.424 448.995 173.61 448.25 173.61 447.442C173.61 447.131 173.61 446.759 173.61 446.448L173.672 434.894Z" fill="#EEEFFF"/>
<path d="M139.713 387.309C184.767 413.4 185.015 455.642 140.271 481.733C95.5262 507.761 22.7082 507.823 -22.346 481.733C-67.4001 455.642 -67.5861 413.4 -22.8417 387.309C21.9026 361.281 94.6586 361.281 139.713 387.309Z" fill="#DFE1FF"/>
<path d="M140.145 480.925C95.4008 506.954 22.5828 507.016 -22.4714 480.925C-44.8436 468.004 -56.1226 451.045 -56.3705 434.086C-56.4944 451.294 -45.2154 468.563 -22.4714 481.733C22.5828 507.823 95.4008 507.761 140.145 481.733C162.703 468.563 173.796 451.356 173.548 434.148C173.424 451.107 162.331 468.004 140.145 480.925Z" fill="#DFE1FF"/>
<path d="M152.788 388.738C152.788 389.67 152.664 390.602 152.54 391.471C152.478 392.465 152.354 393.459 152.23 394.453C152.106 395.261 151.858 396.068 151.61 396.876C151.362 397.808 151.114 398.74 150.804 399.671C150.556 400.417 150.185 401.224 149.813 401.97C149.379 402.964 148.945 403.958 148.449 404.89C148.078 405.573 147.644 406.256 147.21 407.002C146.528 408.12 145.785 409.238 144.979 410.294C144.173 411.35 143.368 412.406 142.5 413.4C142.314 413.649 142.128 413.897 141.88 414.145C140.641 415.45 139.339 416.755 137.914 418.059C136.984 418.867 135.993 419.674 135.001 420.482C134.134 421.165 133.328 421.911 132.398 422.594C131.345 423.401 130.167 424.147 128.99 424.892C127.812 425.638 126.697 426.445 125.396 427.191C122.607 428.806 119.57 430.297 116.533 431.663C115.666 432.036 114.736 432.409 113.869 432.782C111.452 433.776 108.973 434.707 106.494 435.577C105.564 435.888 104.697 436.198 103.767 436.509C102.156 437.006 100.544 437.441 98.9332 437.876C97.6937 438.186 96.5163 438.559 95.2148 438.869C93.4796 439.304 91.7444 439.615 90.0091 439.988C88.8316 440.236 87.6542 440.485 86.4767 440.733C82.9442 441.354 79.3498 441.851 75.7554 442.224C74.6399 442.348 73.5244 442.41 72.4089 442.535C70.3018 442.721 68.1947 442.845 66.0257 442.969C64.6623 443.032 63.2989 443.032 61.9355 443.094C60.2002 443.156 58.527 443.156 56.7917 443.094C55.3664 443.094 53.941 443.032 52.5156 442.969C50.9043 442.907 49.355 442.845 47.7437 442.721C46.3183 442.597 44.831 442.472 43.4056 442.348C41.8563 442.224 40.245 442.038 38.6957 441.851C37.2703 441.665 35.9069 441.479 34.4815 441.23C32.8083 440.982 31.135 440.671 29.5237 440.36C28.2223 440.112 26.9209 439.863 25.6194 439.553C23.6363 439.118 21.7152 438.621 19.794 438.124C18.7405 437.813 17.625 437.565 16.5714 437.254C13.1009 436.26 9.75442 435.08 6.46986 433.838C4.85857 433.217 3.30926 432.533 1.69797 431.788C0.892323 431.415 0.024704 431.104 -0.718971 430.732C-3.07394 429.614 -5.4289 428.433 -7.59794 427.129C-26.1278 416.382 -35.3617 402.343 -35.3617 388.241L-35.5477 422.594C-35.6096 436.633 -26.3137 450.735 -7.78386 461.481C-5.55285 462.786 -3.25985 463.966 -0.904888 465.084C-0.0992432 465.457 0.706406 465.768 1.51205 466.14C2.93742 466.762 4.30082 467.445 5.72619 468.004C5.91211 468.066 6.09803 468.128 6.22198 468.19C9.50653 469.495 12.8531 470.613 16.3235 471.607C16.5714 471.669 16.8813 471.793 17.1292 471.856C17.9348 472.104 18.7405 472.228 19.5461 472.477C21.4673 472.974 23.3884 473.471 25.3716 473.906C25.8673 474.03 26.4251 474.154 26.9209 474.278C27.6645 474.465 28.4702 474.527 29.2758 474.713C30.9491 475.024 32.5604 475.334 34.2337 475.583C34.9154 475.707 35.5351 475.831 36.2168 475.955C36.9605 476.08 37.7041 476.08 38.4478 476.204C39.9971 476.39 41.5464 476.577 43.1577 476.701C43.9014 476.763 44.6451 476.887 45.3887 476.949C46.0704 477.012 46.8141 477.012 47.4958 477.074C49.1071 477.198 50.6564 477.26 52.2677 477.322C53.0734 477.384 53.879 477.446 54.6847 477.446C55.3044 477.446 55.9861 477.446 56.6058 477.446C58.341 477.446 60.0143 477.446 61.7495 477.446C62.6172 477.446 63.4848 477.446 64.2904 477.446C64.7862 477.446 65.282 477.384 65.8398 477.322C67.9468 477.26 70.0539 477.074 72.223 476.887C73.0906 476.825 73.9582 476.825 74.7638 476.701C75.0117 476.701 75.2596 476.639 75.5695 476.577C79.1639 476.204 82.7583 475.707 86.2908 475.086C86.4767 475.086 86.6626 475.024 86.7866 475.024C87.8401 474.837 88.8316 474.589 89.8232 474.402C91.5584 474.03 93.2937 473.719 95.0289 473.284C96.2684 472.974 97.5078 472.601 98.7473 472.29C100.359 471.856 101.97 471.421 103.581 470.924C103.953 470.799 104.263 470.737 104.635 470.613C105.192 470.427 105.75 470.178 106.308 469.992C108.849 469.122 111.266 468.19 113.683 467.196C114.612 466.824 115.48 466.451 116.348 466.078C119.384 464.712 122.421 463.221 125.21 461.606C125.581 461.357 125.953 461.171 126.387 460.922C127.255 460.425 127.998 459.866 128.804 459.307C129.982 458.562 131.159 457.816 132.213 457.009C133.142 456.325 133.948 455.642 134.815 454.897C135.807 454.089 136.799 453.344 137.728 452.474C137.914 452.288 138.162 452.163 138.286 451.977C139.463 450.859 140.579 449.741 141.632 448.56C141.88 448.312 142.066 448.063 142.252 447.815C142.872 447.132 143.554 446.386 144.111 445.641C144.359 445.33 144.545 445.019 144.731 444.709C145.537 443.591 146.28 442.535 146.962 441.416C147.272 440.982 147.644 440.485 147.892 440.05C148.016 439.801 148.078 439.553 148.202 439.366C148.697 438.373 149.131 437.379 149.565 436.447C149.813 435.888 150.123 435.329 150.371 434.707C150.433 434.521 150.495 434.335 150.557 434.148C150.866 433.217 151.114 432.285 151.362 431.353C151.548 430.732 151.796 430.11 151.92 429.427C151.982 429.241 151.92 429.117 151.982 428.93C152.168 427.936 152.23 426.942 152.292 425.948C152.354 425.327 152.478 424.644 152.54 424.023C152.54 423.774 152.54 423.464 152.54 423.215L152.788 388.738Z" fill="#F1F2FF"/>
<path d="M124.9 349.851C161.774 371.22 161.959 405.759 125.334 427.129C88.7077 448.436 29.1519 448.498 -7.78386 427.129C-44.6576 405.821 -44.7816 371.22 -8.1557 349.851C28.5322 328.481 88.088 328.481 124.9 349.851Z" fill="#DFE1FF"/>
<g clip-path="url(#clip0_19_16467)">
<path d="M307.843 161.757C306.952 161.757 306.061 161.303 305.555 160.491L297.678 147.951C294.451 142.816 294.884 136.223 298.738 131.542L304.856 124.113C305.796 122.967 307.506 122.8 308.662 123.731C309.818 124.663 309.987 126.359 309.047 127.505L302.929 134.933C300.545 137.848 300.28 141.932 302.279 145.133L310.155 157.673C310.95 158.938 310.565 160.587 309.288 161.351C308.831 161.638 308.349 161.757 307.843 161.757Z" fill="#F4D5D5"/>
<path d="M301.243 135.793C300.569 135.793 299.87 135.578 299.292 135.101C297.967 134.026 297.775 132.115 298.859 130.801L304.543 123.874C305.627 122.561 307.578 122.37 308.879 123.445C310.204 124.519 310.396 126.43 309.312 127.744L303.628 134.671C303.05 135.411 302.159 135.793 301.243 135.793Z" fill="#6A47EB"/>
<path d="M309.337 225.34C307.265 225.34 305.507 225.746 305.338 223.668L303.315 191.232L305.338 156.335C305.458 154.137 307.337 152.466 309.577 152.585C311.793 152.704 318.49 154.591 318.369 156.789L312.371 191.136L313.359 223.023C313.552 225.221 311.89 225.149 309.698 225.316C309.553 225.34 309.433 225.34 309.337 225.34Z" fill="#172145"/>
<path d="M322.44 231.479C320.224 231.479 318.441 231.694 318.441 229.496L312.709 158.891C312.709 156.693 320.224 158.771 322.44 158.771C324.656 158.771 326.438 160.563 326.438 162.736V229.496C326.438 231.694 324.656 231.479 322.44 231.479Z" fill="#172145"/>
<path d="M313.889 117.306L316.322 118.691C324.367 123.301 328.486 129.297 327.932 138.469C327.306 148.978 328.149 170.26 328.149 170.26C314.612 170.26 303.652 164.241 303.652 164.241C305.796 150.722 303.748 141.813 303.748 132.736C303.748 123.636 308.084 113.986 313.889 117.306Z" fill="#7956FB"/>
<path d="M314.877 125.284H315.142C316.611 125.284 317.815 124.089 317.815 122.632V116.207H312.203V122.632C312.203 124.089 313.407 125.284 314.877 125.284Z" fill="#EDBABA"/>
<path d="M317.791 118.882L319.333 119.695L316.996 132.736L313.865 125.021L317.791 118.882Z" fill="#6A47EB"/>
<path d="M313.865 125.021L312.203 116.757H311.504L308.325 127.72L313.865 125.021Z" fill="#6A47EB"/>
<path d="M313.817 118.023L317.887 117.21C320.103 116.78 321.525 114.655 321.091 112.457L318.514 99.6067L303.122 102.664L305.049 112.218C305.844 116.231 309.77 118.835 313.817 118.023Z" fill="#F4D5D5"/>
<path d="M314.106 105.363C315.286 105.817 316.298 107.179 316.587 108.301C316.828 109.185 316.514 109.543 316.105 110.332C315.864 110.762 315.671 111.287 315.816 111.765C315.84 111.813 315.84 111.884 315.888 111.908C315.936 111.956 315.985 111.956 316.057 111.98C316.563 112.051 316.996 111.621 317.309 111.215C317.791 110.594 318.441 110.045 319.14 110.69C319.911 111.406 319.405 112.171 319.116 112.911C318.755 113.795 318.321 115.73 319.309 116.422C320.103 116.972 321.814 116.255 322.512 115.825C322.609 115.754 322.729 115.682 322.825 115.61C324.921 113.986 324.608 110.762 324.921 108.445C325.186 106.534 324.704 104.933 324.439 103.094C324.174 101.303 324.246 99.6548 322.898 98.2216C321.669 96.9079 319.405 96.4541 318.056 97.6723C317.309 96.7407 316.129 96.2391 314.925 96.0958C313.744 95.9525 312.54 96.1197 311.336 96.2869C309.023 96.5974 307.482 97.2662 305.579 98.5083C304.688 99.1054 304.013 99.9414 303.242 100.658C302.496 101.375 302.52 102.306 302.737 103.309C302.978 104.432 303.483 105.459 303.989 106.486C304.11 106.391 304.158 106.247 304.206 106.104C304.519 105.101 304.543 104.241 305.29 103.429C306.012 102.664 306.663 102.832 307.602 103.166C307.867 103.262 308.156 103.381 308.373 103.572C308.975 104.05 308.807 104.838 309.529 105.292C310.083 105.65 310.806 105.626 311.48 105.531C312.131 105.411 312.805 105.22 313.455 105.268C313.696 105.22 313.913 105.268 314.106 105.363Z" fill="#172145"/>
<path d="M317.912 111.143C317.767 110.714 317.406 110.307 316.948 110.284C316.587 110.26 316.25 110.451 315.936 110.666C315.84 110.737 315.744 110.809 315.647 110.881C314.612 111.669 313.215 112.529 311.938 112.123C310.276 111.597 308.927 111.12 307.145 111.526C306.615 111.645 306.109 111.836 305.748 112.218C305.025 112.983 305.266 114.249 305.82 115.156C306.976 117.043 309.24 118.046 311.456 118.214C312.998 118.333 314.66 118.046 315.84 117.067C317.165 115.968 317.719 114.177 317.96 112.481C318.008 112.051 318.056 111.573 317.912 111.143Z" fill="#172145"/>
<path d="M361.485 238.573L361.509 199.735L204.533 168.206V207.426L204.678 207.45C204.871 207.88 205.232 208.286 205.81 208.621L307.578 267.283C309.264 268.239 312.058 268.239 313.744 267.283L360.281 240.651C361.244 240.054 361.654 239.313 361.485 238.573Z" fill="white"/>
<path d="M361.485 238.573L361.509 199.735L204.533 168.206V207.426L204.678 207.45C204.871 207.88 205.232 208.286 205.81 208.621L307.578 267.283C309.264 268.239 312.058 268.239 313.744 267.283L360.281 240.651C361.244 240.054 361.654 239.313 361.485 238.573Z" fill="url(#paint1_linear_19_16467)"/>
<path d="M251.889 139.591C253.575 138.612 256.345 138.612 258.055 139.567L360.281 198.278C361.967 199.233 361.991 200.81 360.281 201.789L313.744 228.446C312.058 229.425 309.288 229.425 307.578 228.446L205.81 169.783C204.124 168.827 204.1 167.227 205.786 166.247L251.889 139.591Z" fill="#E8F1FF"/>
<path d="M299.967 197.776L321.428 188.055C323.476 186.932 323.524 184.018 321.476 182.872L288.79 164.122L264.655 178.357L299.967 197.776Z" fill="#48486A"/>
<path d="M299.967 196.893L321.428 187.171C323.476 186.049 323.524 183.135 321.476 181.988L287.369 162.402C286.237 161.757 284.84 161.757 283.708 162.426L261.379 175.587L299.967 196.893Z" fill="#172145"/>
<path d="M297.052 195.006L315.768 186.741C317.55 185.786 317.574 183.254 315.816 182.251L285.9 165.101L265.064 177.378L297.052 195.006Z" fill="#48486A"/>
<path d="M258.296 150.913L258.778 150.77C259.235 150.65 259.717 150.698 260.126 150.937L295.583 171.048C296.426 171.526 297.1 172.697 297.1 173.652L300.304 197.753C300.304 197.968 300.183 198.182 300.015 198.326L299.485 198.684L263.041 177.713C262.198 177.235 261.523 176.064 261.523 175.133L258.296 150.913Z" fill="#48486A"/>
<path d="M257.862 151.868C257.862 150.913 258.537 150.531 259.38 151.009L295.149 171.478C295.968 171.956 296.667 173.127 296.667 174.082L300.015 197.657C300.015 198.613 299.34 198.995 298.521 198.517L262.583 178.143C261.74 177.665 261.066 176.494 261.066 175.563L257.862 151.868Z" fill="#172145"/>
<path d="M275.807 172.816C277.276 173.318 278.89 175.157 279.396 176.877C279.902 178.596 279.107 179.6 277.638 179.074C276.168 178.572 274.555 176.733 274.049 175.013C273.543 173.294 274.338 172.314 275.807 172.816Z" fill="#48486A"/>
<path d="M312.974 151.271C312.925 151.271 312.901 151.271 312.853 151.271C310.758 151.2 309.047 149.623 308.831 147.569L306.085 121.032C305.94 119.551 307 118.237 308.493 118.094C309.963 117.951 311.312 119.026 311.456 120.483L313.793 142.911L320.248 130.371C320.922 129.058 322.56 128.532 323.885 129.201C325.21 129.87 325.74 131.494 325.065 132.808L316.707 149.026C315.96 150.387 314.515 151.271 312.974 151.271Z" fill="#F4D5D5"/>
<path d="M319.333 140.881C318.851 140.881 318.369 140.762 317.912 140.523C316.394 139.734 315.816 137.895 316.611 136.391L319.911 130.156C320.706 128.652 322.56 128.078 324.078 128.867C325.595 129.655 326.173 131.494 325.379 132.999L322.079 139.233C321.525 140.284 320.441 140.881 319.333 140.881Z" fill="#6A47EB"/>
<path d="M310.854 120.745C310.469 120.793 310.131 120.554 310.059 120.172L309.192 114.726C309.144 114.344 309.385 113.986 309.77 113.938C310.155 113.89 310.493 114.129 310.565 114.511L311.432 119.957C311.48 120.339 311.239 120.698 310.854 120.745Z" fill="#F4D5D5"/>
<path d="M310.709 123.325C310.348 123.182 310.18 122.776 310.324 122.417L312.468 117.33C312.612 116.972 313.022 116.804 313.383 116.948C313.744 117.091 313.913 117.497 313.769 117.855L311.625 122.943C311.456 123.301 311.071 123.468 310.709 123.325Z" fill="#F4D5D5"/>
<path d="M309.866 122.752C309.481 122.8 309.144 122.561 309.072 122.179L308.204 116.733C308.156 116.351 308.397 115.992 308.783 115.944C309.168 115.897 309.505 116.136 309.577 116.518L310.445 121.964C310.493 122.322 310.228 122.68 309.866 122.752Z" fill="#F4D5D5"/>
<path d="M308.734 123.731C308.349 123.779 307.988 123.54 307.939 123.158L307.072 117.712C307.024 117.33 307.265 116.972 307.65 116.924C308.036 116.876 308.373 117.115 308.445 117.497L309.312 122.943C309.361 123.325 309.12 123.683 308.734 123.731Z" fill="#F4D5D5"/>
<path d="M307.41 124.543C307.024 124.591 306.687 124.352 306.615 123.97L305.748 118.524C305.699 118.142 305.964 117.784 306.35 117.712C306.735 117.664 307.072 117.903 307.145 118.285L308.012 123.731C308.06 124.113 307.795 124.472 307.41 124.543Z" fill="#F4D5D5"/>
</g>
<g clip-path="url(#clip1_19_16467)">
<g opacity="0.45">
<g opacity="0.45">
<path opacity="0.3" d="M160.151 338.804C158.958 338.804 157.786 338.867 156.633 338.972C156.832 338.027 156.951 337.082 156.951 336.096C156.951 324.297 142.423 314.744 124.497 314.744C115.475 314.744 107.307 317.18 101.424 321.085C95.6805 312.729 82.9415 306.892 68.076 306.892C55.1383 306.892 43.7904 311.322 37.2917 317.998C31.9656 314.408 24.5328 312.183 16.3051 312.183C1.57873 312.183 -10.5839 319.321 -12.7104 328.622C-14.0618 328.496 -15.453 328.412 -16.8442 328.412C-33.7566 328.412 -47.4695 337.439 -47.4695 348.545C-47.4695 359.652 -33.7566 368.679 -16.8442 368.679C-1.06446 368.679 11.9329 360.827 13.5824 350.729C14.4767 350.792 15.3909 350.813 16.3051 350.813C24.8707 350.813 32.5419 348.399 37.9078 344.557C44.5059 350.876 55.5556 355.012 68.076 355.012C79.3245 355.012 89.3607 351.674 96.078 346.425C101.623 352.996 112.255 357.447 124.477 357.447C127.737 357.447 130.877 357.132 133.858 356.544C134.216 365.908 145.822 373.424 160.151 373.424C174.678 373.424 186.463 365.677 186.463 356.124C186.463 346.572 174.678 338.804 160.151 338.804Z" fill="url(#paint2_linear_19_16467)"/>
<path opacity="0.3364" d="M-15.5523 328.349C-14.2605 328.286 -12.9489 328.286 -11.6372 328.307C-9.86847 321.442 -2.17736 315.752 8.0377 313.716C10.8399 313.149 13.8209 312.876 16.8815 312.918C21.6114 312.981 26.083 313.8 29.9782 315.206C32.6612 316.172 35.1255 317.348 37.2917 318.67C39.1599 316.991 41.346 315.374 43.7705 313.884C49.991 310.042 58.4969 307.564 68.076 307.564C78.5693 307.564 87.8503 310.524 94.1503 315.059C97.032 317.138 99.5162 319.405 101.424 321.756C103.014 320.812 104.743 319.93 106.571 319.09C111.659 316.781 117.84 315.416 124.497 315.416C138.449 315.416 150.055 321.316 154.208 329.063C154.328 329.252 154.427 329.482 154.526 329.713C155.421 331.813 155.997 334.017 156.037 336.285C156.057 337.229 155.957 338.153 155.798 339.077C156.891 339.056 157.984 339.056 159.137 339.14C162.496 339.35 165.775 339.875 168.816 340.631C169.114 340.694 169.392 340.778 169.67 340.84C170.684 341.092 171.638 341.407 172.552 341.743C180.422 344.557 185.549 349.973 185.549 355.789C185.549 360.911 181.495 365.845 174.976 368.742C169.929 370.863 164.304 371.891 158.72 371.534C155.938 371.366 153.175 370.674 150.492 369.918C148.207 369.288 146.021 368.532 143.993 367.692C143.417 367.441 142.841 367.189 142.284 366.937C139.939 365.824 137.892 364.417 136.263 362.843C133.997 360.638 132.566 358.014 132.208 355.222C129.168 355.684 126.048 355.873 122.868 355.705C121.695 355.642 120.562 355.537 119.449 355.369C116.588 354.97 113.766 354.424 111.083 353.794C108.916 353.29 106.869 352.723 104.962 352.073C100.748 350.624 97.1512 348.419 94.4285 345.795C91.9443 347.58 89.0427 349.133 85.8431 350.33C80.0201 352.492 73.2631 353.584 66.2675 353.269C64.9161 353.206 63.5846 353.08 62.2928 352.912C59.8086 352.576 57.3443 352.157 54.9594 351.695C52.9323 351.296 50.9847 350.876 49.1563 350.372C44.0885 349.007 39.5772 346.698 36.0596 343.843C35.7416 344.053 35.4037 344.242 35.0659 344.452C34.4895 344.787 33.8933 345.102 33.2773 345.417C33.1183 345.501 32.9593 345.564 32.8003 345.648C28.8653 347.496 24.2944 349.217 19.6042 350.12C18.1335 350.414 16.5436 350.624 14.8544 350.729C13.9601 350.792 13.0657 350.792 12.1714 350.792C11.1579 355.222 7.83897 359.253 2.87055 362.045C-3.25054 365.467 -10.9814 366.811 -18.6924 366.601C-34.0746 366.16 -45.4423 357.594 -44.6871 347.454C-44.5083 345.102 -43.8524 342.919 -42.5606 340.903C-42.2427 340.421 -41.9048 339.917 -41.5272 339.455C-36.6383 333.303 -26.6816 328.832 -15.5523 328.349Z" fill="url(#paint3_linear_19_16467)"/>
<path opacity="0.3727" d="M-14.2606 328.265C-13.088 328.139 -11.8559 328.055 -10.5641 327.992C-8.69596 321.547 -1.16385 316.13 8.87235 314.303C11.6149 313.8 14.5165 313.569 17.4776 313.632C22.0883 313.758 26.4009 314.618 30.157 316.046C32.7406 317.033 35.1652 318.145 37.2917 319.342C39.2393 317.831 41.4651 316.277 43.85 314.723C49.8121 310.86 58.2981 308.236 68.076 308.236C78.768 308.236 88.0689 311.385 94.031 315.941C96.8332 318.082 99.377 320.308 101.404 322.407C103.014 321.568 104.763 320.707 106.591 319.825C111.599 317.453 117.82 316.067 124.477 316.067C138.409 316.067 149.697 322.05 153.433 329.398C153.533 329.587 153.612 329.797 153.712 330.049C154.427 332.128 155.003 334.269 155.083 336.495C155.123 337.418 155.043 338.321 154.944 339.203C155.957 339.266 157.011 339.35 158.084 339.476C161.303 339.875 164.543 340.526 167.564 341.176C167.842 341.239 168.14 341.302 168.418 341.365C169.432 341.596 170.366 341.869 171.28 342.163C179.408 344.766 184.575 350.078 184.575 355.432C184.575 360.176 180.402 365.131 173.466 367.713C167.862 369.624 162.257 370.275 157.249 369.582C154.705 369.225 152.102 368.175 149.459 367.315C147.213 366.58 145.007 365.845 142.98 365.068C142.384 364.858 141.807 364.627 141.251 364.396C138.886 363.452 136.799 362.213 135.09 360.785C132.725 358.791 131.135 356.397 130.539 353.815C127.439 354.13 124.318 354.193 121.238 353.857C120.065 353.731 118.953 353.542 117.899 353.311C115.117 352.723 112.295 352.094 109.592 351.527C107.426 351.065 105.359 350.666 103.471 350.204C99.377 349.196 95.7202 347.349 92.7988 345.081C90.255 346.761 87.3137 348.21 84.0743 349.259C78.0923 351.233 71.2756 352.031 64.459 351.401C63.1076 351.275 61.8158 351.065 60.5439 350.813C58.0994 350.33 55.6351 349.847 53.2502 349.448C51.243 349.091 49.2755 348.797 47.4471 348.461C42.5185 347.538 37.9475 345.585 34.1914 343.003C33.8535 343.192 33.5356 343.36 33.1778 343.549C32.5816 343.843 31.9854 344.137 31.3495 344.41C31.1905 344.473 31.0116 344.557 30.8526 344.619C26.8183 346.278 22.2871 348.273 17.9546 349.553C16.6231 349.952 15.0928 350.267 13.3638 350.498C12.4893 350.603 11.6149 350.645 10.7206 350.708C9.46856 354.886 5.99067 358.728 0.863262 361.163C-5.83416 364.354 -13.6246 364.774 -20.5605 364.333C-34.3926 363.473 -43.455 355.453 -41.9247 346.173C-41.5869 344.137 -40.9708 342.142 -39.6989 340.337C-39.3809 339.896 -39.0629 339.455 -38.6853 339.035C-33.7964 333.555 -24.3962 329.273 -14.2606 328.265Z" fill="url(#paint4_linear_19_16467)"/>
<path opacity="0.4091" d="M-12.9688 328.202C-11.8956 328.034 -10.743 327.845 -9.5108 327.677C-7.5433 321.652 -0.170177 316.508 9.68716 314.891C12.3701 314.45 15.1922 314.261 18.054 314.366C22.5255 314.555 26.7189 315.437 30.316 316.886C32.8002 317.894 35.1652 318.943 37.2718 320.014C39.2989 318.67 41.5645 317.159 43.9096 315.563C49.6134 311.679 58.0795 308.908 68.076 308.908C78.9866 308.908 88.2676 312.225 93.9316 316.844C96.6543 319.069 99.2578 321.232 101.424 323.1C103.074 322.344 104.842 321.526 106.651 320.623C111.599 318.187 117.84 316.76 124.497 316.76C138.409 316.76 149.359 322.827 152.698 329.755C152.778 329.923 152.857 330.112 152.937 330.385C153.513 332.443 154.049 334.521 154.169 336.684C154.208 337.586 154.189 338.468 154.129 339.329C155.083 339.476 156.057 339.623 157.09 339.833C160.171 340.442 163.37 341.176 166.391 341.764C166.669 341.827 166.967 341.869 167.246 341.932C168.259 342.121 169.193 342.373 170.087 342.625C178.474 344.997 183.681 350.246 183.681 355.138C183.681 359.484 179.368 364.459 172.035 366.769C165.874 368.448 160.25 368.721 155.858 367.734C153.533 367.21 151.108 365.803 148.485 364.816C146.279 363.997 144.073 363.242 142.006 362.57C141.41 362.381 140.833 362.192 140.257 362.003C137.892 361.226 135.746 360.155 133.937 358.875C131.453 357.111 129.704 354.928 128.889 352.555C125.729 352.744 122.609 352.639 119.628 352.157C118.456 351.968 117.363 351.695 116.349 351.401C113.646 350.624 110.824 349.91 108.121 349.406C105.955 349.007 103.888 348.734 102 348.461C98.0057 347.874 94.2893 346.383 91.189 344.515C88.5657 346.089 85.5847 347.412 82.3254 348.357C76.1646 350.12 69.3082 350.645 62.6902 349.679C61.3587 349.49 60.0669 349.196 58.8347 348.881C56.4499 348.252 53.9856 347.727 51.5808 347.349C49.5736 347.034 47.6061 346.866 45.7777 346.677C40.9882 346.194 36.3377 344.578 32.3829 342.31C32.045 342.478 31.7072 342.646 31.3494 342.793C30.7532 343.066 30.1372 343.318 29.5012 343.549C29.3223 343.612 29.1634 343.675 28.9845 343.738C24.8309 345.228 20.3792 347.496 16.3846 349.133C15.1922 349.616 13.7016 350.078 11.9726 350.414C11.1181 350.582 10.2436 350.666 9.3493 350.771C7.83891 354.697 4.2219 358.35 -1.04462 360.449C-8.35813 363.368 -16.1486 362.906 -22.3492 362.255C-34.6112 360.974 -41.408 353.584 -39.1027 345.102C-38.6058 343.318 -38.0494 341.533 -36.7576 339.938C-36.4396 339.56 -36.1216 339.161 -35.7639 338.783C-30.9346 333.786 -22.0908 329.692 -12.9688 328.202Z" fill="url(#paint5_linear_19_16467)"/>
<path opacity="0.4455" d="M-11.677 328.139C-10.7231 327.908 -9.64991 327.635 -8.43761 327.383C-6.37075 321.777 0.843388 316.907 10.5219 315.479C13.1452 315.08 15.8878 314.954 18.6502 315.101C23.0025 315.353 27.0568 316.277 30.5148 317.747C32.8996 318.775 35.2248 319.762 37.2917 320.686C39.3784 319.51 41.6838 318.061 43.9891 316.403C49.4345 312.519 57.8808 309.58 68.076 309.58C79.1854 309.58 88.4863 313.107 93.8124 317.726C96.4556 320.035 99.1187 322.134 101.424 323.772C103.093 323.121 104.882 322.323 106.691 321.4C111.579 318.88 117.84 317.432 124.497 317.432C138.389 317.432 149.021 323.583 151.923 330.112C152.003 330.259 152.062 330.448 152.122 330.742C152.539 332.758 153.056 334.794 153.215 336.915C153.274 337.796 153.274 338.636 153.274 339.476C154.149 339.707 155.083 339.938 156.057 340.211C158.998 341.029 162.158 341.848 165.159 342.373C165.437 342.415 165.735 342.478 166.013 342.52C167.027 342.667 167.961 342.898 168.836 343.108C177.5 345.249 182.707 350.414 182.707 354.844C182.707 358.791 178.275 363.808 170.525 365.824C163.807 367.294 158.302 366.328 154.367 365.866C152.4 364.711 150.015 363.41 147.432 362.297C145.285 361.373 143.059 360.617 140.953 360.029C140.357 359.861 139.76 359.715 139.184 359.547C136.799 358.917 134.613 358.014 132.725 356.901C130.141 355.369 128.234 353.416 127.2 351.254C123.981 351.296 120.86 351.065 117.979 350.435C116.826 350.183 115.753 349.847 114.779 349.469C112.156 348.503 109.334 347.706 106.611 347.265C104.445 346.908 102.358 346.782 100.49 346.698C96.6146 346.53 92.8386 345.417 89.5594 343.906C86.8765 345.375 83.8358 346.593 80.5567 347.412C74.2368 348.986 67.3009 349.217 60.9016 347.937C59.5701 347.685 58.318 347.307 57.1057 346.908C54.7805 346.11 52.2963 345.543 49.8916 345.207C47.8844 344.934 45.897 344.871 44.0885 344.85C39.4579 344.808 34.7081 343.528 30.5346 341.575C30.1968 341.722 29.8391 341.869 29.4813 341.995C28.8653 342.226 28.2293 342.457 27.5933 342.646C27.4145 342.688 27.2356 342.751 27.0766 342.793C22.8237 344.095 18.4316 346.614 14.7748 348.65C13.7215 349.238 12.2707 349.805 10.5219 350.267C9.68717 350.477 8.8326 350.624 7.93829 350.75C6.1894 354.424 2.39353 357.846 -3.0121 359.652C-10.9616 362.297 -18.752 360.932 -24.1776 360.071C-34.8696 358.371 -40.7919 350.981 -36.3005 343.906C-35.9626 342.31 -35.1279 340.799 -33.8362 339.413C-33.5182 339.077 -33.2002 338.741 -32.8624 338.405C-28.0927 334.038 -19.7656 330.112 -11.677 328.139Z" fill="url(#paint6_linear_19_16467)"/>
<path opacity="0.4818" d="M-10.3852 328.076C-9.53066 327.782 -8.53698 327.404 -7.38431 327.068C-5.1982 321.882 1.83707 317.285 11.3367 316.067C13.9004 315.731 16.5635 315.647 19.2265 315.836C23.4397 316.13 27.3747 317.117 30.6738 318.607C32.9791 319.657 35.2248 320.581 37.2718 321.379C39.438 320.371 41.7831 318.964 44.0487 317.264C49.2556 313.359 57.6622 310.273 68.0561 310.273C79.3841 310.273 88.685 313.989 93.6733 318.649C96.237 321.043 98.9597 323.058 101.384 324.465C103.093 323.898 104.902 323.142 106.671 322.197C111.5 319.615 117.78 318.124 124.438 318.124C138.31 318.124 148.624 324.36 151.108 330.49C151.168 330.616 151.208 330.805 151.267 331.099C151.565 333.073 152.022 335.088 152.221 337.124C152.301 337.964 152.34 338.804 152.38 339.602C153.195 339.917 154.049 340.232 154.964 340.568C157.786 341.596 160.866 342.499 163.887 342.94C164.165 342.982 164.463 343.024 164.742 343.045C165.775 343.171 166.669 343.339 167.544 343.528C176.487 345.396 181.714 350.519 181.714 354.508C181.714 358.077 177.163 363.095 168.975 364.816C161.681 366.076 156.216 364.522 152.857 363.934C151.148 362.486 148.922 360.953 146.358 359.715C144.252 358.707 142.026 357.93 139.88 357.426C139.283 357.279 138.687 357.153 138.091 357.048C135.706 356.586 133.48 355.852 131.493 354.886C128.81 353.584 126.743 351.842 125.471 349.889C122.192 349.805 119.072 349.406 116.29 348.629C115.137 348.294 114.084 347.895 113.149 347.454C110.606 346.278 107.784 345.438 105.041 345.039C102.895 344.745 100.788 344.745 98.9199 344.871C95.1837 345.102 91.3282 344.368 87.8503 343.234C85.1077 344.599 82.0273 345.711 78.7084 346.404C72.2097 347.769 65.2341 347.706 59.0136 346.131C57.7019 345.795 56.4499 345.354 55.2972 344.892C53.0118 343.948 50.5474 343.318 48.1228 343.024C46.1156 342.793 44.1282 342.835 42.3197 342.982C37.8482 343.339 33.0189 342.457 28.6268 340.799C28.269 340.924 27.9113 341.05 27.5536 341.176C26.9176 341.386 26.2817 341.554 25.6259 341.722C25.447 341.764 25.2681 341.806 25.0893 341.848C20.7369 342.961 16.4243 345.711 13.0856 348.168C12.1714 348.839 10.7802 349.532 8.99159 350.12C8.19664 350.372 7.34208 350.561 6.44776 350.75C4.4604 354.172 0.485664 357.363 -5.05909 358.854C-13.6246 361.184 -21.3952 359.001 -26.1053 357.909C-35.2074 355.789 -39.2219 348.797 -33.5977 342.73C-33.1604 341.344 -32.3059 340.064 -31.0141 338.888C-30.716 338.615 -30.398 338.3 -30.0403 338.027C-25.2309 334.29 -17.4603 330.532 -10.3852 328.076Z" fill="url(#paint7_linear_19_16467)"/>
<path opacity="0.5182" d="M-9.09344 328.013C-8.35811 327.656 -7.42405 327.194 -6.31112 326.774C-4.02565 322.008 2.85064 317.684 12.1714 316.676C14.6755 316.403 17.259 316.361 19.8227 316.571C23.9167 316.928 27.6927 317.935 30.8526 319.468C33.0586 320.518 35.2447 321.4 37.2917 322.05C39.5374 321.211 41.9222 319.867 44.1481 318.103C49.1165 314.198 57.4833 310.944 68.0959 310.944C79.6226 310.944 88.9235 314.87 93.6136 319.531C96.0979 322.008 98.8802 323.961 101.444 325.137C103.173 324.675 105.001 323.94 106.77 322.953C111.54 320.308 117.84 318.796 124.517 318.796C138.349 318.796 148.346 325.116 150.432 330.826C150.492 330.931 150.512 331.12 150.552 331.435C150.711 333.366 151.128 335.34 151.367 337.313C151.466 338.132 151.525 338.93 151.605 339.707C152.34 340.106 153.155 340.484 154.01 340.903C156.693 342.163 159.733 343.15 162.734 343.507C163.012 343.549 163.311 343.57 163.589 343.591C164.622 343.675 165.517 343.822 166.371 343.969C175.592 345.585 180.839 350.666 180.839 354.172C180.839 357.342 176.149 362.381 167.564 363.829C159.713 364.879 154.288 362.717 151.466 362.045C150.015 360.323 147.928 358.518 145.404 357.174C143.338 356.061 141.092 355.306 138.926 354.865C138.31 354.739 137.713 354.655 137.117 354.571C134.732 354.277 132.447 353.689 130.38 352.891C127.598 351.8 125.372 350.288 123.861 348.545C120.503 348.315 117.402 347.769 114.719 346.845C113.567 346.446 112.533 345.963 111.659 345.459C109.195 344.074 106.373 343.171 103.61 342.835C101.464 342.583 99.3571 342.73 97.4691 343.045C93.8521 343.654 89.937 343.339 86.2604 342.562C83.4383 343.822 80.3182 344.808 76.9794 345.396C70.3018 346.53 63.2864 346.173 57.2647 344.326C55.9531 343.927 54.7408 343.423 53.608 342.856C51.3821 341.764 48.8979 341.071 46.4733 340.84C44.4661 340.652 42.4787 340.798 40.6702 341.134C36.3576 341.89 31.429 341.386 26.8183 340.043C26.4605 340.148 26.1028 340.253 25.7252 340.358C25.0893 340.526 24.4334 340.673 23.7776 340.798C23.5987 340.84 23.4199 340.861 23.2211 340.903C18.7496 341.827 14.5165 344.787 11.5155 347.685C10.7405 348.44 9.38907 349.259 7.60044 349.973C6.82537 350.288 5.9708 350.519 5.07648 350.75C2.83076 353.92 -1.30296 356.859 -6.96696 358.077C-16.1685 360.071 -23.8993 357.069 -27.874 355.747C-35.3664 353.248 -37.4929 346.635 -30.7359 341.575C-30.2191 340.421 -29.3248 339.371 -28.033 338.405C-27.7349 338.174 -27.417 337.922 -27.0791 337.691C-22.3492 334.542 -15.135 330.931 -9.09344 328.013Z" fill="url(#paint8_linear_19_16467)"/>
<path opacity="0.5545" d="M-7.80164 327.95C-7.16568 327.53 -6.33098 326.984 -5.23793 326.459C-2.85309 322.113 3.8642 318.061 13.0061 317.264C15.4506 317.033 17.9546 317.054 20.419 317.306C24.3738 317.726 28.0306 318.775 31.0514 320.308C33.158 321.379 35.3043 322.197 37.3116 322.722C39.6368 322.05 42.0614 320.749 44.2276 318.964C48.9377 315.059 57.2846 311.637 68.0959 311.637C79.8412 311.637 89.1222 315.773 93.4945 320.434C95.8992 322.995 98.7411 324.885 101.444 325.829C103.213 325.452 105.041 324.759 106.81 323.751C111.52 321.043 117.84 319.489 124.517 319.489C138.329 319.489 148.008 325.892 149.657 331.204C149.697 331.288 149.717 331.456 149.737 331.792C149.777 333.681 150.134 335.613 150.413 337.544C150.532 338.342 150.631 339.119 150.75 339.875C151.426 340.358 152.162 340.819 152.976 341.281C155.52 342.751 158.521 343.822 161.522 344.116C161.8 344.137 162.098 344.158 162.377 344.179C163.41 344.221 164.304 344.347 165.139 344.452C174.658 345.774 179.905 350.834 179.905 353.899C179.905 356.67 175.096 361.751 166.093 362.906C157.686 363.745 152.301 360.995 150.035 360.197C148.862 358.182 146.895 356.145 144.411 354.676C142.384 353.479 140.138 352.702 137.952 352.366C137.336 352.261 136.72 352.219 136.123 352.178C133.719 352.031 131.394 351.632 129.227 350.981C126.346 350.12 123.961 348.818 122.212 347.286C118.794 346.929 115.693 346.215 113.11 345.144C111.957 344.682 110.963 344.116 110.109 343.549C107.724 341.974 104.902 340.987 102.12 340.715C99.9733 340.526 97.8667 340.777 95.9787 341.323C92.4809 342.31 88.5062 342.415 84.6308 342.016C81.7491 343.171 78.5693 344.053 75.2305 344.494C68.3741 345.417 61.2991 344.745 55.4761 342.625C54.1645 342.142 52.972 341.575 51.879 340.945C49.7128 339.686 47.2285 338.951 44.7841 338.762C42.7768 338.594 40.7895 338.867 38.981 339.371C34.8075 340.526 29.8192 340.4 24.97 339.371C24.5924 339.455 24.2347 339.539 23.8571 339.623C23.2013 339.749 22.5455 339.875 21.8698 339.959C21.6909 339.98 21.4921 340.001 21.3133 340.043C16.7423 340.777 12.549 343.906 9.92567 347.265C9.28971 348.084 7.97805 349.049 6.16955 349.889C5.41435 350.246 4.57966 350.54 3.68534 350.813C1.20113 353.71 -3.13132 356.397 -8.91456 357.363C-18.7719 359.001 -26.4034 355.243 -29.7024 353.668C-35.5651 350.855 -35.8235 344.536 -27.9337 340.484C-27.3375 339.56 -26.4034 338.741 -25.1315 337.985C-24.8334 337.817 -24.5353 337.607 -24.1974 337.439C-19.4874 334.815 -12.8098 331.309 -7.80164 327.95Z" fill="url(#paint9_linear_19_16467)"/>
<path opacity="0.5909" d="M-6.50986 327.887C-5.99314 327.404 -5.21807 326.774 -4.18464 326.165C-1.70043 322.239 4.85787 318.46 13.8209 317.852C16.2057 317.684 18.6303 317.747 20.9953 318.04C24.8309 318.523 28.3485 319.615 31.2104 321.169C33.2176 322.26 35.3043 323.016 37.2917 323.415C39.6964 322.911 42.1607 321.673 44.2872 319.825C48.7588 315.92 57.066 312.33 68.076 312.33C80.0399 312.33 89.3011 316.676 93.3553 321.358C95.6606 324.003 98.5821 325.829 101.404 326.522C103.193 326.249 105.061 325.598 106.81 324.549C111.44 321.777 117.78 320.182 124.477 320.182C138.27 320.182 147.63 326.669 148.862 331.561C148.902 331.624 148.902 331.792 148.902 332.128C148.843 333.975 149.121 335.886 149.439 337.733C149.578 338.51 149.717 339.245 149.876 339.98C150.472 340.547 151.168 341.092 151.903 341.617C154.308 343.318 157.269 344.452 160.25 344.682C160.528 344.703 160.826 344.724 161.105 344.724C162.138 344.745 163.032 344.808 163.847 344.892C173.645 345.921 178.911 350.96 178.911 353.563C178.911 355.957 173.983 361.037 164.563 361.898C155.6 362.528 150.234 359.19 148.525 358.266C147.61 355.957 145.782 353.689 143.338 352.094C141.37 350.813 139.104 350.015 136.879 349.763C136.263 349.7 135.646 349.658 135.03 349.658C132.626 349.679 130.261 349.427 127.995 348.944C125.014 348.294 122.47 347.223 120.483 345.921C117.005 345.417 113.905 344.536 111.42 343.36C110.268 342.814 109.294 342.184 108.499 341.554C106.194 339.77 103.372 338.699 100.569 338.51C98.4231 338.363 96.3165 338.741 94.4285 339.497C91.05 340.84 87.0156 341.365 82.9415 341.344C80.0002 342.394 76.7608 343.15 73.4021 343.486C66.3669 344.179 59.272 343.213 53.6278 340.819C52.3361 340.274 51.1635 339.623 50.0903 338.909C47.9639 337.502 45.4796 336.705 43.0153 336.558C41.0081 336.432 39.0207 336.789 37.2122 337.481C33.1977 339.014 28.1101 339.308 23.0622 338.573C22.6846 338.636 22.307 338.699 21.9294 338.762C21.2537 338.867 20.5779 338.951 19.9221 338.993C19.7234 339.014 19.5445 339.035 19.3458 339.056C14.6556 339.602 10.4821 342.898 8.25627 346.74C7.73956 347.622 6.48752 348.713 4.67901 349.7C3.94369 350.099 3.109 350.435 2.23455 350.771C-0.488136 353.416 -4.99946 355.831 -10.9218 356.544C-21.4151 357.804 -28.9472 353.353 -31.5705 351.464C-35.7838 348.419 -34.174 342.31 -25.1712 339.266C-24.4955 338.573 -23.5217 337.964 -22.2498 337.439C-21.9517 337.313 -21.6536 337.166 -21.3356 337.04C-16.6057 335.088 -10.5045 331.645 -6.50986 327.887Z" fill="url(#paint10_linear_19_16467)"/>
<path opacity="0.6273" d="M-5.21804 327.803C-4.82057 327.236 -4.12499 326.543 -3.11144 325.829C-0.527859 322.323 5.87146 318.838 14.6556 318.418C16.9808 318.313 19.3259 318.418 21.5717 318.733C25.2682 319.279 28.6467 320.392 31.3694 321.987C33.2772 323.1 35.3044 323.793 37.2719 324.045C39.7362 323.709 42.2601 322.533 44.3469 320.623C48.5998 316.76 56.8673 312.981 68.076 312.981C80.2387 312.981 89.48 317.537 93.256 322.218C95.4619 324.969 98.4628 326.711 101.424 327.173C103.252 326.984 105.121 326.375 106.869 325.284C111.44 322.449 117.8 320.833 124.497 320.833C138.27 320.833 147.292 327.404 148.127 331.897C148.147 331.939 148.147 332.107 148.107 332.464C147.948 334.269 148.147 336.138 148.505 337.943C148.644 338.678 148.823 339.413 149.041 340.106C149.578 340.757 150.194 341.386 150.89 341.974C153.155 343.906 156.077 345.102 159.058 345.249C159.336 345.27 159.634 345.27 159.912 345.27C160.966 345.249 161.82 345.291 162.635 345.333C172.711 346.026 177.997 351.107 177.997 353.248C177.997 355.243 172.929 360.365 163.112 360.932C153.592 361.352 148.266 357.426 147.114 356.397C146.458 353.794 144.768 351.296 142.344 349.574C140.416 348.189 138.151 347.391 135.885 347.223C135.269 347.181 134.633 347.181 134.017 347.223C131.612 347.391 129.188 347.307 126.842 346.992C123.762 346.551 121.059 345.711 118.833 344.619C115.296 343.99 112.215 342.94 109.811 341.617C108.678 340.987 107.724 340.295 106.949 339.623C104.743 337.628 101.901 336.495 99.0789 336.369C96.9326 336.264 94.8061 336.768 92.938 337.733C89.6787 339.434 85.5847 340.4 81.3119 340.736C78.2911 341.68 75.0119 342.31 71.6334 342.541C64.4391 343.003 57.2846 341.743 51.8194 339.077C50.5475 338.447 49.3749 337.733 48.3415 336.957C46.2746 335.403 43.7904 334.542 41.3062 334.458C39.299 334.374 37.2917 334.836 35.5031 335.697C31.6277 337.586 26.4606 338.3 21.1941 337.88C20.8165 337.922 20.419 337.985 20.0414 338.006C19.3458 338.069 18.6701 338.111 17.9944 338.132C17.7957 338.132 17.5969 338.153 17.3982 338.153C12.6086 338.531 8.41529 341.974 6.60678 346.299C6.20931 347.265 5.01689 348.461 3.18851 349.595C2.47306 350.036 1.65825 350.435 0.763927 350.813C-2.21712 353.206 -6.88743 355.327 -12.929 355.789C-24.0583 356.649 -31.5308 351.611 -33.4585 349.343C-36.0818 346.257 -32.127 341.89 -22.4485 338.153C-21.6138 337.838 -20.6996 337.313 -19.4078 336.977C-19.1097 336.894 -18.8116 336.81 -18.5135 336.726C-13.7041 335.382 -8.21897 331.96 -5.21804 327.803Z" fill="url(#paint11_linear_19_16467)"/>
<path opacity="0.6636" d="M-3.92628 327.74C-3.64805 327.11 -3.01209 326.333 -2.03828 325.535C0.644665 322.449 6.88499 319.237 15.4903 319.027C17.7559 318.964 20.0215 319.132 22.1678 319.489C25.7451 320.098 28.9845 321.253 31.5681 322.869C33.3766 324.003 35.364 324.612 37.2917 324.759C39.8355 324.591 42.3992 323.478 44.4263 321.505C48.4408 317.621 56.6486 313.674 68.076 313.674C80.4573 313.674 89.6588 318.46 93.1367 323.121C95.2632 325.955 98.3237 327.635 101.424 327.866C103.292 327.782 105.18 327.194 106.889 326.081C111.401 323.184 117.78 321.526 124.477 321.526C138.21 321.526 146.935 328.181 147.352 332.275C147.372 332.296 147.352 332.464 147.292 332.821C147.034 334.584 147.173 336.411 147.551 338.153C147.71 338.867 147.928 339.581 148.187 340.253C148.644 340.987 149.2 341.701 149.856 342.352C151.983 344.515 154.864 345.795 157.825 345.858C158.104 345.858 158.402 345.858 158.68 345.837C159.733 345.774 160.588 345.774 161.383 345.795C171.737 346.152 177.043 351.254 177.043 352.933C177.043 354.55 171.856 359.673 161.621 359.966C151.526 360.176 146.259 355.663 145.643 354.508C145.265 351.632 143.695 348.902 141.31 347.034C139.422 345.564 137.157 344.745 134.852 344.661C134.216 344.64 133.599 344.661 132.964 344.745C130.539 345.081 128.075 345.144 125.65 344.997C122.47 344.787 119.608 344.158 117.144 343.276C113.547 342.499 110.467 341.281 108.141 339.833C107.009 339.14 106.074 338.384 105.339 337.628C103.213 335.424 100.391 334.227 97.5487 334.164C95.4023 334.122 93.2559 334.71 91.3878 335.928C88.2279 337.985 84.0942 339.371 79.6425 340.085C76.5621 340.924 73.2431 341.428 69.8249 341.554C62.4518 341.785 55.2575 340.211 49.991 337.292C48.719 336.6 47.5863 335.802 46.5727 334.941C44.5655 333.219 42.0813 332.317 39.5772 332.275C37.5699 332.233 35.5627 332.779 33.7741 333.828C30.0179 336.075 24.811 337.208 19.3259 337.103C18.9284 337.145 18.531 337.166 18.1534 337.187C17.4578 337.229 16.7622 337.229 16.0666 337.208C15.8679 337.208 15.6692 337.208 15.4704 337.208C10.5815 337.397 6.32853 341.008 4.97712 345.816C4.67902 346.845 3.56609 348.189 1.71784 349.448C1.02226 349.931 0.227318 350.372 -0.667 350.813C-3.88653 352.954 -8.73571 354.781 -14.9164 355.012C-26.622 355.474 -34.174 349.952 -35.267 347.202C-36.4793 344.158 -30.7557 338.972 -19.6265 336.998C-18.752 336.852 -17.7583 336.6 -16.4666 336.495C-16.1685 336.474 -15.8704 336.432 -15.5722 336.39C-10.8224 335.697 -5.97327 332.275 -3.92628 327.74Z" fill="url(#paint12_linear_19_16467)"/>
<path opacity="0.7" d="M160.151 358.98C149.498 358.98 144.252 353.857 144.212 352.597C144.093 349.427 142.662 346.467 140.317 344.473C138.469 342.919 136.183 342.079 133.858 342.079C133.222 342.079 132.586 342.142 131.95 342.268C129.525 342.751 127.001 342.982 124.478 342.982C114.481 342.982 106.889 339.287 103.809 335.634C101.782 333.219 98.9398 331.96 96.078 331.96C93.9317 331.96 91.7655 332.653 89.9172 334.101C84.75 338.132 76.6019 340.547 68.076 340.547C58.6758 340.547 49.7724 337.628 44.8636 332.926C42.8961 331.057 40.4119 330.091 37.9078 330.091C35.9006 330.091 33.8735 330.721 32.1047 331.981C28.2095 334.773 22.4461 336.369 16.3051 336.369C15.5897 336.369 14.8941 336.348 14.1985 336.306C13.9998 336.285 13.7812 336.285 13.5825 336.285C8.57429 336.285 4.24184 340.085 3.38727 345.354C2.87055 348.461 -4.52245 354.235 -16.8441 354.235C-29.2254 354.235 -37.1153 348.189 -37.1153 345.039C-37.1153 341.869 -29.2254 335.844 -16.8441 335.844C-15.9101 335.844 -14.8568 335.907 -13.565 336.012C-13.2669 336.033 -12.9886 336.054 -12.6905 336.054C-7.9606 336.054 -3.76726 332.632 -2.63446 327.677C-1.9985 324.864 5.07652 319.615 16.3051 319.615C22.2275 319.615 27.8517 321.106 31.7271 323.709C33.4362 324.864 35.364 325.41 37.2719 325.41C39.8952 325.41 42.4986 324.36 44.486 322.323C48.262 318.46 56.4301 314.324 68.0562 314.324C80.6362 314.324 89.8178 319.342 92.9976 324.003C95.0049 326.942 98.1648 328.517 101.384 328.517C103.272 328.517 105.18 327.971 106.889 326.837C111.341 323.877 117.74 322.176 124.438 322.176C138.151 322.176 146.537 328.916 146.537 332.59C146.537 332.59 146.517 332.758 146.438 333.136C145.742 336.516 146.597 340.064 148.763 342.667C150.731 345.039 153.573 346.404 156.554 346.404C156.832 346.404 157.11 346.383 157.408 346.362C158.461 346.278 159.316 346.236 160.091 346.236C170.724 346.236 176.05 351.401 176.05 352.597C176.109 353.815 170.783 358.98 160.151 358.98Z" fill="url(#paint13_linear_19_16467)"/>
</g>
<path opacity="0.55" d="M159.018 353.878C159.733 352.471 160.131 350.981 160.131 349.427C160.131 341.68 150.572 335.382 138.786 335.382C138.409 335.382 138.051 335.403 137.693 335.424C137.892 334.521 138.051 333.618 138.051 332.674C138.051 322.743 125.809 314.702 110.725 314.702C106.631 314.702 102.756 315.311 99.2776 316.382C95.442 313.926 90.2153 312.414 84.432 312.414C76.6217 312.414 69.805 315.185 66.0886 319.3C61.2792 316.676 55.0985 315.101 48.3812 315.101C37.5501 315.101 28.1697 319.195 23.5987 325.158C20.2202 323.667 16.166 322.806 11.7938 322.806C0.00871277 322.806 -9.55052 329.084 -9.55052 336.852C-9.55052 338.069 -9.29216 339.245 -8.85495 340.358C-12.9688 338.825 -17.6987 337.943 -22.7665 337.943C-38.3872 337.943 -51.0269 346.278 -51.0269 356.544C-51.0269 359.882 -49.6754 363.011 -47.3304 365.719C-52.9546 369.456 -56.4325 374.579 -56.4325 380.247C-56.4325 390.765 -44.4487 399.415 -28.987 400.696C-28.8081 411.277 -15.7511 419.822 0.366436 419.822C11.2572 419.822 20.7568 415.917 25.8246 410.122C32.3432 417.134 44.0686 421.816 57.4635 421.816C69.0299 421.816 79.3642 418.331 86.1809 412.873C92.5206 416.19 100.53 418.184 109.234 418.184C128.75 418.184 144.709 408.275 146.199 395.699C146.299 395.699 146.398 395.699 146.478 395.699C164.702 395.699 179.488 385.979 179.488 373.991C179.528 364.9 171.041 357.132 159.018 353.878ZM80.5368 378.253C74.1971 374.936 66.188 372.941 57.4833 372.941C41.9024 372.941 28.587 379.26 23.082 388.204C18.8489 384.824 12.9266 382.41 6.14967 381.528C6.18942 381.108 6.24904 380.667 6.24904 380.247C6.24904 375.523 3.82445 371.199 -0.229774 367.734C3.34748 364.627 5.49384 360.764 5.49384 356.544C5.49384 354.172 4.79826 351.905 3.54622 349.805C6.07018 350.498 8.85249 350.876 11.754 350.876C18.3124 350.876 24.1751 348.923 28.0902 345.858C33.158 349.406 40.3324 351.653 48.3415 351.653C60.7228 351.653 71.1962 346.32 74.7734 338.972C77.675 339.938 80.9343 340.484 84.3923 340.484C84.9487 340.484 85.5052 340.463 86.0617 340.421C90.4736 346.467 99.8142 350.645 110.685 350.645C113.03 350.645 115.296 350.435 117.462 350.057C117.701 353.416 119.708 356.439 122.888 358.77C118.555 361.688 115.455 365.383 114.163 369.519C112.533 369.372 110.904 369.288 109.214 369.288C97.6878 369.309 87.3535 372.794 80.5368 378.253Z" fill="url(#paint14_linear_19_16467)"/>
<path opacity="0.4" d="M55.3767 414.909C44.1879 414.909 33.7542 411.172 28.1697 405.168C26.9971 403.908 25.4072 403.215 23.7379 403.215C23.6981 403.215 23.6782 403.215 23.6385 403.215C21.9492 403.236 20.3196 404.013 19.1669 405.315C15.1326 409.933 6.92475 412.915 -1.74017 412.915C-15.2543 412.915 -24.7936 406.238 -24.893 400.255C-24.9526 396.875 -27.4368 394.082 -30.6166 393.831C-44.0313 392.739 -52.3385 385.769 -52.3385 379.932C-52.3385 376.846 -50.0928 373.571 -46.1578 370.968C-44.5878 369.939 -43.5544 368.217 -43.296 366.286C-43.0376 364.354 -43.614 362.402 -44.866 360.974C-46.2373 359.379 -46.9329 357.783 -46.9329 356.229C-46.9329 350.54 -37.4929 344.2 -24.8731 344.2C-20.7195 344.2 -16.6255 344.913 -13.0284 346.236C-12.3527 346.488 -11.6571 346.614 -10.9616 346.614C-9.29216 346.614 -7.64265 345.9 -6.45023 344.556C-4.76097 342.667 -4.284 339.917 -5.21806 337.523C-5.37705 337.145 -5.43667 336.81 -5.43667 336.516C-5.43667 333.534 0.604923 329.042 9.68719 329.042C13.1055 329.042 16.3647 329.671 19.1073 330.889C19.8824 331.225 20.6972 331.393 21.4921 331.393C23.3205 331.393 25.1091 330.532 26.3214 328.958C29.8788 324.339 37.7091 321.337 46.2746 321.337C51.7597 321.337 57.0461 322.575 61.1401 324.801C62.0344 325.284 63.0281 325.535 63.982 325.535C65.6514 325.535 67.2811 324.843 68.4735 323.499C70.5006 321.253 75.3299 318.649 82.3254 318.649C86.7175 318.649 90.9506 319.741 93.9515 321.673C94.9253 322.302 96.0383 322.617 97.1711 322.617C97.7474 322.617 98.3237 322.533 98.9001 322.365C101.98 321.421 105.26 320.959 108.618 320.959C120.701 320.959 129.724 326.984 129.724 332.359C129.724 332.653 129.665 333.031 129.545 333.534C129.088 335.529 129.525 337.628 130.758 339.224C131.93 340.756 133.719 341.659 135.587 341.659C135.646 341.659 136.521 341.617 136.68 341.617C145.782 341.617 151.804 346.11 151.804 349.091C151.804 349.49 151.685 349.931 151.426 350.435C150.532 352.219 150.432 354.34 151.208 356.187C151.983 358.035 153.513 359.4 155.361 359.903C164.682 362.423 171.2 368.07 171.2 373.634C171.2 380.793 160.19 388.771 144.411 388.771C144.411 388.771 144.172 388.75 144.113 388.75C140.992 388.75 138.349 391.206 137.952 394.481C136.998 402.543 124.935 411.214 107.148 411.214C99.7546 411.214 92.5405 409.576 86.8367 406.595C85.9623 406.133 85.0282 405.923 84.0743 405.923C82.7428 405.923 81.4112 406.385 80.3182 407.267C74.2965 412.138 65.1943 414.909 55.3767 414.909ZM1.43962 342.919C-0.507999 342.919 -2.37613 343.885 -3.56855 345.606C-5.07895 347.769 -5.17831 350.687 -3.8269 352.975C-3.1512 354.109 -2.83322 355.159 -2.83322 356.229C-2.83322 358.791 -4.72122 360.974 -6.29124 362.36C-7.72214 363.619 -8.55684 365.488 -8.55684 367.44C-8.55684 369.414 -7.70227 371.261 -6.27137 372.5C-4.36349 374.138 -2.09789 376.762 -2.09789 379.932L-2.15752 380.562C-2.49537 384.11 -0.0906525 387.28 3.268 387.721C8.81275 388.435 13.7613 390.366 17.2193 393.117C18.3124 393.978 19.624 394.439 20.9754 394.439C21.3332 394.439 21.6909 394.397 22.0486 394.334C23.7379 394.02 25.2483 392.97 26.1823 391.458C29.9384 385.349 40.4317 379.176 55.3767 379.176C62.7697 379.176 69.9839 380.814 75.6876 383.795C76.5621 384.257 77.4961 384.467 78.4501 384.467C79.7816 384.467 81.0933 384.005 82.2062 383.123C88.2279 378.295 97.33 375.523 107.168 375.523C108.479 375.523 109.89 375.586 111.599 375.733C111.778 375.754 111.937 375.754 112.116 375.754C114.779 375.754 117.164 373.97 118.019 371.261C118.813 368.7 121.019 366.118 124.179 363.976C125.928 362.801 127.021 360.764 127.041 358.56C127.081 356.355 126.087 354.298 124.358 353.038C122.689 351.8 121.675 350.414 121.576 349.238C121.437 347.412 120.602 345.711 119.231 344.577C118.118 343.654 116.766 343.171 115.375 343.171C115.057 343.171 114.719 343.192 114.402 343.255C112.434 343.591 110.486 343.759 108.598 343.759C98.8603 343.759 91.6859 339.917 88.9036 336.096C87.7311 334.479 85.9027 333.534 83.9749 333.534C83.8756 333.534 83.7762 333.534 83.6768 333.534C83.2197 333.555 82.7626 333.576 82.3056 333.576C79.5829 333.576 76.9794 333.177 74.5548 332.359C73.9387 332.149 73.3028 332.065 72.6867 332.065C70.4211 332.065 68.2549 333.387 67.1618 335.613C64.936 340.148 57.0461 344.745 46.2348 344.745C39.7958 344.745 33.6747 343.024 29.4217 340.043C28.3684 339.308 27.176 338.951 25.9836 338.951C24.6719 338.951 23.3801 339.392 22.2871 340.232C19.306 342.562 14.5761 343.969 9.64744 343.969C7.34209 343.969 5.09637 343.675 2.98976 343.108C2.49292 343.003 1.95633 342.919 1.43962 342.919Z" fill="url(#paint15_linear_19_16467)"/>
<path opacity="0.5" d="M54.8799 406.469C44.9033 406.469 35.3838 403.152 30.6141 398.05C28.6665 395.951 26.0034 394.775 23.241 394.775C23.1814 394.775 23.1416 394.775 23.082 394.775C20.26 394.817 17.5571 396.098 15.6493 398.281C12.9465 401.368 6.38815 404.475 -2.21715 404.475C-14.4792 404.475 -21.1766 398.533 -21.2362 396.119C-21.3356 390.471 -25.4693 385.832 -30.7955 385.391C-42.3818 384.446 -48.7016 378.589 -48.7016 375.859C-48.7016 374.369 -47.0323 372.311 -44.4487 370.611C-41.8452 368.889 -40.0963 366.034 -39.6989 362.822C-39.2815 359.61 -40.2553 356.355 -42.3222 353.962C-43.0575 353.122 -43.3159 352.471 -43.3159 352.157C-43.3159 350.183 -37.155 344.494 -25.4097 344.494C-21.7132 344.494 -18.0962 345.123 -14.9562 346.278C-13.8234 346.698 -12.6707 346.908 -11.518 346.908C-10.8026 346.908 -10.0871 346.824 -9.37167 346.677C-9.1928 348.252 -8.69596 349.805 -7.86127 351.212C-7.58303 351.674 -7.50354 351.989 -7.50354 352.157C-7.50354 352.66 -8.11963 353.731 -9.45116 354.907C-11.8559 356.985 -13.2272 360.113 -13.2272 363.389C-13.2073 366.664 -11.8161 369.771 -9.41142 371.828C-7.8414 373.172 -6.86758 374.6 -6.76822 375.67L-6.80796 376.048C-7.36443 381.948 -3.36982 387.259 2.21468 387.994C6.98436 388.624 11.3367 390.283 14.1786 392.55C15.9871 393.999 18.1931 394.775 20.4189 394.775C21.0152 394.775 21.6114 394.712 22.2076 394.607C25.0296 394.083 27.5337 392.34 29.1037 389.8C32.1444 384.845 41.5049 379.512 54.8203 379.512C61.5773 379.512 68.1356 381.003 73.2829 383.69C74.7337 384.446 76.3037 384.824 77.8737 384.824C80.0996 384.824 82.3055 384.068 84.1339 382.599C89.3806 378.4 97.7672 375.88 106.591 375.88C107.803 375.88 109.095 375.943 110.665 376.09C110.963 376.111 111.242 376.132 111.54 376.132C115.972 376.132 119.946 373.151 121.357 368.637C121.854 367.042 123.484 365.236 125.829 363.661C128.75 361.688 130.559 358.308 130.618 354.655C130.678 351.002 129.009 347.538 126.167 345.459C125.61 345.039 125.272 344.703 125.133 344.494C124.815 341.596 123.444 338.951 121.278 337.145C119.43 335.613 117.164 334.794 114.859 334.794C114.322 334.794 113.766 334.836 113.229 334.941C111.48 335.235 109.751 335.382 108.082 335.382C99.7745 335.382 93.7528 332.296 91.666 329.419C89.6985 326.732 86.6579 325.158 83.4582 325.158C83.2793 325.158 83.1005 325.158 82.9216 325.179C82.544 325.2 82.1664 325.221 81.7888 325.221C79.5232 325.221 77.2576 324.864 75.2901 324.213C74.2567 323.877 73.2034 323.709 72.17 323.709C71.057 323.709 69.9839 323.898 68.9306 324.255C69.646 323.772 70.3217 323.205 70.9378 322.533C72.4482 320.854 76.5024 319.027 81.7888 319.027C85.4456 319.027 88.9036 319.909 91.2884 321.421C92.9181 322.449 94.7663 322.995 96.6344 322.995C97.5884 322.995 98.5622 322.848 99.4962 322.575C102.199 321.756 105.101 321.337 108.082 321.337C119.032 321.337 125.054 326.627 125.054 328.37C125.054 328.349 125.054 328.349 125.054 328.349C125.054 328.349 125.034 328.412 125.014 328.496C124.239 331.813 124.994 335.34 127.021 338.006C128.989 340.568 131.95 342.058 135.07 342.058C135.189 342.058 136.163 342.016 136.163 342.016C141.768 342.016 145.544 344.032 146.855 345.291C145.762 348.042 145.762 351.191 146.915 353.962C148.207 357.048 150.75 359.337 153.831 360.155C161.681 362.276 166.55 366.727 166.55 369.645C166.55 373.424 158.004 380.373 144.053 380.415C143.894 380.415 143.755 380.415 143.616 380.415C138.389 380.415 133.997 384.509 133.341 389.989C132.705 395.384 122.232 402.9 106.651 402.9C99.8739 402.9 93.3155 401.41 88.1881 398.722C86.7374 397.967 85.1673 397.589 83.5973 397.589C81.3715 397.589 79.1655 398.344 77.3371 399.814C72.0706 403.95 63.6839 406.469 54.8799 406.469ZM45.7579 336.348C40.1137 336.348 34.8274 334.899 31.2302 332.38C29.5211 331.183 27.5735 330.574 25.6259 330.553C26.8978 329.881 28.0703 328.916 29.0044 327.677C31.2302 324.78 37.4109 321.673 45.7579 321.673C50.5872 321.673 55.1979 322.722 58.7155 324.654C60.2259 325.473 61.8555 325.871 63.4653 325.871C64.5584 325.871 65.6514 325.682 66.7047 325.326C65.1744 326.333 63.8827 327.782 63.0082 329.587C61.6568 332.296 55.2575 336.348 45.7579 336.348ZM9.15059 335.571C7.18309 335.571 5.2951 335.319 3.54622 334.836C2.67177 334.605 1.79733 334.479 0.942764 334.479C0.227314 334.479 -0.488136 334.563 -1.20359 334.71C-1.28308 334.038 -1.40233 333.366 -1.60106 332.716C-0.368896 331.456 3.44685 329.377 9.15059 329.377C12.7875 329.377 15.4307 330.196 17.0007 330.889C18.2527 331.435 19.5445 331.708 20.8363 331.729C20.3196 332.002 19.8029 332.338 19.3259 332.716C17.577 334.08 13.96 335.571 9.15059 335.571Z" fill="url(#paint16_linear_19_16467)"/>
<path opacity="0.55" d="M54.8799 399.898C46.7515 399.898 38.6033 397.232 35.046 393.432C34.9068 393.285 34.7677 393.138 34.6286 392.991C36.5365 390.492 43.373 386.063 54.8799 386.063C60.7029 386.063 66.2873 387.301 70.5999 389.548C72.8655 390.723 75.4094 391.353 77.9333 391.353C81.5304 391.353 85.0878 390.094 87.9496 387.805C92.1032 384.488 99.2578 382.41 106.651 382.41C107.684 382.41 108.817 382.473 110.208 382.599C110.665 382.641 111.142 382.662 111.599 382.662C118.674 382.662 124.915 377.959 127.24 370.905C127.439 370.632 128.035 369.96 129.227 369.162C133.917 366.013 136.779 360.617 136.879 354.739C136.918 352.576 136.58 350.477 135.925 348.503C136.183 348.503 136.382 348.482 136.382 348.482C137.733 348.482 138.906 348.65 139.86 348.902C139.78 351.506 140.237 354.109 141.251 356.502C143.318 361.478 147.352 365.089 152.32 366.433C155.5 367.294 157.806 368.553 159.177 369.561C156.792 371.345 151.724 373.718 144.172 373.76C143.993 373.76 143.814 373.76 143.636 373.76C135.388 373.76 128.373 380.226 127.22 388.834C126.206 391.017 118.853 396.245 106.651 396.245C100.828 396.245 95.2433 395.006 90.9307 392.76C88.6651 391.563 86.1213 390.954 83.5774 390.954C79.9803 390.954 76.4229 392.214 73.5611 394.523C69.4274 397.841 62.253 399.898 54.8799 399.898ZM-2.23703 397.904C-9.53066 397.904 -13.724 395.447 -15.1549 394.229C-16.0492 385.979 -22.3293 379.491 -30.3384 378.841C-35.2869 378.442 -38.6654 377.035 -40.6727 375.817C-36.7774 373.025 -34.1939 368.637 -33.5579 363.682C-33.0809 359.987 -33.7368 356.313 -35.3465 353.101C-33.3194 352.094 -30.0403 351.065 -25.4097 351.065C-22.4088 351.065 -19.5072 351.548 -17.023 352.492C-16.7249 352.597 -16.4069 352.702 -16.089 352.807C-18.2552 355.831 -19.4476 359.547 -19.4277 363.431C-19.4079 368.7 -17.182 373.634 -13.3067 376.951C-13.2073 377.035 -13.1278 377.119 -13.0483 377.182C-13.0483 386 -6.94709 393.432 1.47935 394.544C3.6257 394.817 5.73231 395.384 7.48119 396.119C5.1361 397.085 1.8172 397.904 -2.23703 397.904ZM45.7579 329.776C43.5519 329.776 41.4055 329.503 39.4977 329C41.2267 328.538 43.3134 328.223 45.7579 328.223C47.944 328.223 50.0704 328.496 51.9982 329C50.2692 329.461 48.1626 329.776 45.7579 329.776ZM108.102 328.769C106.273 328.769 104.644 328.58 103.232 328.307C104.802 327.992 106.432 327.824 108.102 327.824C109.97 327.824 111.619 328.013 113.03 328.286C112.772 328.307 112.513 328.349 112.255 328.391C110.844 328.643 109.453 328.769 108.102 328.769Z" fill="url(#paint17_linear_19_16467)"/>
</g>
</g>
<g clip-path="url(#clip2_19_16467)">
<path opacity="0.8" d="M44.2332 327.988C28.2148 368.971 25.6988 385.03 -0.304792 397.625C-54.7094 423.972 108.755 428.681 125.867 417.755C142.978 406.829 98.3349 400.165 90.9448 379.801C78.3251 345.047 69.8548 327.255 69.8548 327.255L44.2332 327.988Z" fill="url(#paint18_linear_19_16467)"/>
<path d="M47.2233 328.849C34.4059 369.088 32.4036 384.86 11.6034 397.221C-31.9335 423.101 98.8485 427.714 112.535 416.99C126.222 406.255 90.5099 399.719 84.5952 379.716C74.4915 345.589 67.7206 328.116 67.7206 328.116L47.2233 328.849Z" fill="url(#paint19_linear_19_16467)"/>
</g>
<path d="M-11.0212 256.893L-34.5554 297.798L-25.5221 303.041L-22.9864 300.578C-13.3192 291.444 1.65712 291.682 17.1881 300.737C20.7539 302.802 24.3989 305.344 27.9647 308.362L31.372 311.142L22.9726 276.511L-11.0212 256.893Z" fill="#7956FB"/>
<path d="M31.372 311.142L34.8585 309.077L26.4591 274.446L22.8933 276.512L31.372 311.142Z" fill="#BBAAFC"/>
<path d="M22.8933 276.512L26.459 274.446L-7.45555 254.827L-11.0213 256.893L22.8933 276.512Z" fill="#E8F1FF"/>
<path d="M142.466 300.578C141.04 299.228 139.614 298.116 137.95 297.163L134.463 295.098C136.048 296.051 137.553 297.163 138.98 298.513L141.515 300.976L145.002 303.041L142.466 300.578Z" fill="url(#paint20_linear_19_16467)"/>
<path d="M130.422 256.893L153.956 297.798L144.923 303.041L142.387 300.578C132.72 291.444 117.743 291.682 102.212 300.737C98.6465 302.802 95.0015 305.344 91.4357 308.362L88.0284 311.142L96.4278 276.511L130.422 256.893Z" fill="#7956FB"/>
<path d="M88.1077 311.142L84.6212 309.077L93.0206 274.446L96.5071 276.512L88.1077 311.142Z" fill="#BBAAFC"/>
<path d="M96.5071 276.512L93.0206 274.446L126.935 254.827L130.422 256.893L96.5071 276.512Z" fill="#DFE1FF"/>
<path d="M44.605 300.578H29.074C29.1532 300.976 29.2325 301.373 29.2325 301.69C29.3117 302.008 29.3909 302.405 29.3909 302.723C29.7079 304.391 30.0249 305.98 30.3418 307.568C30.421 307.886 30.5003 308.204 30.5003 308.442C31.2134 311.778 32.0058 314.955 32.7982 317.894C32.7982 318.053 32.8775 318.212 32.8775 318.37C33.2737 319.88 33.6699 321.309 34.0661 322.66C34.0661 322.818 34.1453 322.898 34.1453 323.057C35.0169 325.916 35.8886 328.617 36.681 331C36.9979 331.794 37.2357 332.588 37.5526 333.303C39.2959 334.574 43.6541 336.56 53.876 337.195C55.7778 337.274 57.838 337.354 60.1359 337.354C75.1122 337.354 80.7383 334.733 82.7985 333.224C85.7304 325.281 89.0584 314.081 91.4356 300.578H44.605Z" fill="#40CCFD"/>
<path d="M44.605 300.578H29.074C29.1532 300.976 29.2325 301.373 29.2325 301.69C29.3117 302.008 29.3909 302.405 29.3909 302.723C29.7079 304.391 30.0249 305.98 30.3418 307.568C30.421 307.886 30.5003 308.204 30.5003 308.442C31.2134 311.778 32.0058 314.955 32.7982 317.894C32.7982 318.053 32.8775 318.212 32.8775 318.37C33.2737 319.88 33.6699 321.309 34.0661 322.66C34.0661 322.818 34.1453 322.898 34.1453 323.057C35.0169 325.916 35.8886 328.617 36.681 331C36.9979 331.794 37.2357 332.588 37.5526 333.303C38.9789 334.336 42.0693 335.845 48.4877 336.639C44.2088 330.364 44.1295 323.057 44.1295 323.057C65.6827 323.692 82.1646 320.436 87.1567 319.324C88.6622 313.764 90.1678 307.489 91.3564 300.578H44.605Z" fill="#03B4F2"/>
<path d="M0.389139 232.27C0.468378 232.826 0.547623 233.302 0.626862 233.858C0.468384 232.905 0.389145 231.872 0.309906 230.84C0.309906 231.396 0.3099 231.793 0.389139 232.27Z" fill="url(#paint21_linear_19_16467)"/>
<path d="M2.29102 144.104C-0.403135 159.592 -1.98793 175.716 -1.98793 192.158C-1.98793 192.317 -1.98793 192.476 -1.98793 192.555C-1.98793 192.396 -1.98793 192.238 -1.98793 192.079C-1.98793 175.637 -0.403135 159.592 2.29102 144.104Z" fill="url(#paint22_linear_19_16467)"/>
<path d="M2.05322 244.661C1.97398 244.184 1.89475 243.787 1.81551 243.31C1.89475 243.787 1.97398 244.184 2.05322 244.661Z" fill="url(#paint23_linear_19_16467)"/>
<path d="M5.9359 265.63C5.77742 265.074 5.69818 264.518 5.5397 263.962C5.69818 264.597 5.85666 265.074 5.9359 265.63Z" fill="url(#paint24_linear_19_16467)"/>
<path d="M12.8299 292.318C12.7506 292.08 12.6714 291.921 12.6714 291.682C12.6714 291.841 12.7506 292.08 12.8299 292.318Z" fill="url(#paint25_linear_19_16467)"/>
<path d="M10.3735 283.819C10.2943 283.581 10.215 283.263 10.1358 283.025C10.215 283.263 10.2943 283.501 10.3735 283.819Z" fill="url(#paint26_linear_19_16467)"/>
<path d="M3.79664 255.145C3.7174 254.51 3.55892 253.874 3.47968 253.239C3.63816 253.874 3.7174 254.51 3.79664 255.145Z" fill="url(#paint27_linear_19_16467)"/>
<path d="M88.4246 50.1394C89.1378 52.9989 86.3644 55.8583 80.3422 58.0029C69.3279 61.9743 51.4197 61.9743 40.3261 58.0029C37.8697 57.1292 36.0472 56.176 34.6209 55.1435C35.9679 56.176 37.8697 57.2086 40.3261 58.0823C41.3562 58.4795 42.5448 58.7972 43.7334 59.0355C28.8364 124.405 14.177 231.475 48.8048 318.132C52.2121 318.291 56.0156 318.45 60.2153 318.45C87.6322 318.45 97.9334 313.684 101.578 310.904C108.235 292.874 116.317 265.63 120.2 232.031C120.358 230.681 120.517 229.251 120.675 227.822C121.151 223.294 121.626 218.608 121.864 213.763L122.102 209.632C122.418 203.914 122.577 198.115 122.577 192.158C122.577 137.193 104.986 86.0413 88.4246 50.1394Z" fill="#DFE1FF"/>
<path d="M88.4246 50.1394C89.1378 52.9989 86.3644 55.8583 80.3422 58.0029C69.3279 61.9743 51.4197 61.9743 40.3261 58.0029C37.8697 57.1292 36.0472 56.176 34.6209 55.1435C35.9679 56.176 37.8697 57.2086 40.3261 58.0823C41.3562 58.4795 42.5448 58.7972 43.7334 59.0355C28.8364 124.405 14.177 231.475 48.8048 318.132C52.2121 318.291 56.0156 318.45 60.2153 318.45C87.6322 318.45 97.9334 313.684 101.578 310.904C108.235 292.874 116.317 265.63 120.2 232.031C120.358 230.681 120.517 229.251 120.675 227.822C121.151 223.294 121.626 218.608 121.864 213.763L122.102 209.632C122.418 203.914 122.577 198.115 122.577 192.158C122.577 137.193 104.986 86.0413 88.4246 50.1394Z" fill="url(#paint28_linear_19_16467)"/>
<path d="M5.61903 263.962C4.98511 261.102 4.43043 258.084 3.87575 255.066C4.35119 258.163 4.98511 261.102 5.61903 263.962Z" fill="url(#paint29_linear_19_16467)"/>
<path d="M12.5923 291.682C11.8791 289.141 11.0867 286.52 10.3736 283.819C11.0867 286.52 11.8791 289.141 12.5923 291.682Z" fill="url(#paint30_linear_19_16467)"/>
<path d="M3.47957 253.239C3.00413 250.459 2.52869 247.599 2.05325 244.661C2.52869 247.599 3.00413 250.459 3.47957 253.239Z" fill="url(#paint31_linear_19_16467)"/>
<path d="M17.505 306.774C15.9995 302.405 14.4147 297.56 12.8299 292.318C14.3354 297.56 15.9202 302.405 17.505 306.774Z" fill="url(#paint32_linear_19_16467)"/>
<path d="M10.1357 282.945C8.7094 277.544 7.28308 271.746 5.936 265.63C7.28308 271.746 8.7094 277.544 10.1357 282.945Z" fill="url(#paint33_linear_19_16467)"/>
<path d="M34.6208 55.1434C32.5605 53.5548 31.6889 51.8868 32.0851 50.2188C20.5161 75.3183 8.47168 107.964 2.29099 144.104C8.47168 107.964 20.5953 75.3183 32.0851 50.2188C31.7681 51.8868 32.6398 53.6343 34.6208 55.1434Z" fill="url(#paint34_linear_19_16467)"/>
<path d="M-1.27472 214.319C-0.878522 219.958 -0.403082 225.518 0.230834 230.919C0.151594 229.966 -0.00688434 229.093 -0.0861237 228.139C-0.56156 223.691 -0.957762 219.084 -1.27472 214.319Z" fill="url(#paint35_linear_19_16467)"/>
<path d="M1.81547 243.31C1.34003 240.213 0.943837 237.115 0.547638 233.938C0.943837 237.115 1.41927 240.213 1.81547 243.31Z" fill="url(#paint36_linear_19_16467)"/>
<path d="M17.505 306.774C17.9805 308.204 18.5351 309.633 19.0106 310.984C18.5351 309.633 17.9805 308.283 17.505 306.774Z" fill="url(#paint37_linear_19_16467)"/>
<path d="M48.8849 318.133C14.2571 231.476 28.9165 124.406 43.8135 59.0359C42.6249 58.7182 41.4363 58.4005 40.4062 58.0828C37.9498 57.2091 36.048 56.2559 34.701 55.1439C32.6407 53.5553 31.7691 51.8873 32.1653 50.2193C20.5963 75.3188 8.55184 107.964 2.37114 144.104C-0.323012 159.593 -1.90781 175.717 -1.90781 192.159C-1.90781 192.317 -1.90781 192.476 -1.90781 192.635C-1.90781 198.275 -1.74932 203.835 -1.43236 209.236C-1.35312 210.983 -1.27389 212.731 -1.11541 214.399C-0.798447 219.085 -0.402251 223.771 0.0731869 228.219C0.152427 229.172 0.231666 230.046 0.390146 230.999C0.469385 232.032 0.627864 232.985 0.707104 234.018C1.1033 237.195 1.49951 240.372 1.97495 243.39C2.05419 243.867 2.13342 244.264 2.21266 244.74C2.6881 247.679 3.16354 250.539 3.63898 253.319C3.71822 253.954 3.8767 254.59 3.95594 255.225C4.51062 258.243 5.06529 261.182 5.69921 264.121C5.77845 264.677 5.93693 265.233 6.09541 265.789C7.44248 271.905 8.8688 277.703 10.2951 283.105C10.3744 283.343 10.4536 283.661 10.5328 283.899C11.246 286.599 12.0384 289.221 12.7515 291.762C12.8308 292.001 12.91 292.239 12.91 292.398C14.4948 297.64 16.0796 302.485 17.5852 306.854C18.1398 308.363 18.6153 309.713 19.0907 311.064C22.2603 313.367 30.105 317.1 48.8849 318.133Z" fill="url(#paint38_linear_19_16467)"/>
<path d="M48.8849 318.133C14.2571 231.476 28.9165 124.406 43.8135 59.0359C42.6249 58.7182 41.4363 58.4005 40.4062 58.0828C37.9498 57.2091 36.048 56.2559 34.701 55.1439C32.6407 53.5553 31.7691 51.8873 32.1653 50.2193C20.5963 75.3188 8.55184 107.964 2.37114 144.104C-0.323012 159.593 -1.90781 175.717 -1.90781 192.159C-1.90781 192.317 -1.90781 192.476 -1.90781 192.635C-1.90781 198.275 -1.74932 203.835 -1.43236 209.236C-1.35312 210.983 -1.27389 212.731 -1.11541 214.399C-0.798447 219.085 -0.402251 223.771 0.0731869 228.219C0.152427 229.172 0.231666 230.046 0.390146 230.999C0.469385 232.032 0.627864 232.985 0.707104 234.018C1.1033 237.195 1.49951 240.372 1.97495 243.39C2.05419 243.867 2.13342 244.264 2.21266 244.74C2.6881 247.679 3.16354 250.539 3.63898 253.319C3.71822 253.954 3.8767 254.59 3.95594 255.225C4.51062 258.243 5.06529 261.182 5.69921 264.121C5.77845 264.677 5.93693 265.233 6.09541 265.789C7.44248 271.905 8.8688 277.703 10.2951 283.105C10.3744 283.343 10.4536 283.661 10.5328 283.899C11.246 286.599 12.0384 289.221 12.7515 291.762C12.8308 292.001 12.91 292.239 12.91 292.398C14.4948 297.64 16.0796 302.485 17.5852 306.854C18.1398 308.363 18.6153 309.713 19.0907 311.064C22.2603 313.367 30.105 317.1 48.8849 318.133Z" fill="#F1F2FF"/>
<path d="M48.8849 318.133C14.2571 231.476 28.9165 124.406 43.8135 59.0359C42.6249 58.7182 41.4363 58.4005 40.4062 58.0828C37.9498 57.2091 36.048 56.2559 34.701 55.1439C32.6407 53.5553 31.7691 51.8873 32.1653 50.2193C20.5963 75.3188 8.55184 107.964 2.37114 144.104C-0.323012 159.593 -1.90781 175.717 -1.90781 192.159C-1.90781 192.317 -1.90781 192.476 -1.90781 192.635C-1.90781 198.275 -1.74932 203.835 -1.43236 209.236C-1.35312 210.983 -1.27389 212.731 -1.11541 214.399C-0.798447 219.085 -0.402251 223.771 0.0731869 228.219C0.152427 229.172 0.231666 230.046 0.390146 230.999C0.469385 232.032 0.627864 232.985 0.707104 234.018C1.1033 237.195 1.49951 240.372 1.97495 243.39C2.05419 243.867 2.13342 244.264 2.21266 244.74C2.6881 247.679 3.16354 250.539 3.63898 253.319C3.71822 253.954 3.8767 254.59 3.95594 255.225C4.51062 258.243 5.06529 261.182 5.69921 264.121C5.77845 264.677 5.93693 265.233 6.09541 265.789C7.44248 271.905 8.8688 277.703 10.2951 283.105C10.3744 283.343 10.4536 283.661 10.5328 283.899C11.246 286.599 12.0384 289.221 12.7515 291.762C12.8308 292.001 12.91 292.239 12.91 292.398C14.4948 297.64 16.0796 302.485 17.5852 306.854C18.1398 308.363 18.6153 309.713 19.0907 311.064C22.2603 313.367 30.105 317.1 48.8849 318.133Z" fill="url(#paint39_linear_19_16467)"/>
<path d="M31.2928 278.1L39.9299 302.882L36.5226 303.994C32.9568 305.185 29.3118 306.853 25.746 308.918C10.1358 317.973 -4.76129 334.971 -14.3493 355.225L-16.885 360.547L-25.9183 365.789L-2.70105 297.798L31.2928 278.1Z" fill="#7956FB"/>
<path d="M-2.62182 297.719L-6.10837 295.733L27.727 276.114L31.2928 278.1L-2.62182 297.719Z" fill="#DFE1FF"/>
<path d="M88.1867 278.1L79.5495 302.882L82.9568 303.994C86.5226 305.185 90.1676 306.853 93.7334 308.918C109.344 317.973 124.241 334.971 133.829 355.225L136.364 360.547L145.398 365.789L122.18 297.798L88.1867 278.1Z" fill="#7956FB"/>
<path d="M145.318 365.789L148.805 363.724L125.588 295.733L122.101 297.719L145.318 365.789Z" fill="#BBAAFC"/>
<path d="M122.101 297.719L125.588 295.733L91.6732 276.114L88.1867 278.1L122.101 297.719Z" fill="#DFE1FF"/>
<path d="M122.101 209.632L121.864 213.763C116.475 218.211 101.341 225.677 60.2944 225.677C19.0105 225.677 3.95496 218.131 -1.3541 213.683C-1.43334 212.333 -1.51259 210.903 -1.59183 209.474C-1.11639 210.427 7.04531 222.897 60.2944 222.897C111.8 222.976 121.071 211.221 122.101 209.632Z" fill="#7956FB"/>
<path d="M120.675 227.901C120.596 229.331 120.437 230.761 120.2 232.111C114.732 236.559 99.835 243.628 60.1359 243.628C20.9915 243.628 5.93592 236.638 0.309896 232.27C0.151417 230.919 -0.00706398 229.49 -0.0863037 228.139C1.57773 230.363 12.0374 240.927 60.1359 240.927C110.612 240.927 119.724 229.41 120.675 227.901Z" fill="#7956FB"/>
<path d="M88.5038 50.1394C88.266 49.6629 88.0283 49.1069 87.7906 48.6303C76.1424 23.5308 65.2073 6.2153 61.5623 0.655288C60.9283 -0.218429 59.6605 -0.218429 59.0266 0.655288C55.3816 6.13587 44.5257 23.4514 32.8775 48.392C32.6398 48.948 32.3228 49.5834 32.0851 50.1394C31.5304 52.9194 34.2245 55.8583 40.326 58.0029C51.4196 61.8949 69.3278 61.8949 80.3421 58.0029C86.4435 55.8583 89.1377 52.9989 88.5038 50.1394Z" fill="#40CCFD"/>
<path d="M40.326 58.0823C41.3561 58.4795 42.5447 58.7972 43.7333 59.0355C51.1819 26.2314 58.7096 3.99131 60.0567 0.0198669C59.6605 0.0992957 59.2643 0.258153 59.0266 0.655297C55.3816 6.13588 44.5257 23.4514 32.8775 48.392C32.6398 48.948 32.3228 49.5834 32.0851 50.1394C31.5304 52.9989 34.2245 55.9377 40.326 58.0823Z" fill="#E8F1FF"/>
<path d="M40.326 58.0823C41.3561 58.4795 42.5447 58.7972 43.7333 59.0355C51.1819 26.2314 58.7096 3.99131 60.0567 0.0198669C59.6605 0.0992957 59.2643 0.258153 59.0266 0.655297C55.3816 6.13588 44.5257 23.4514 32.8775 48.392C32.6398 48.948 32.3228 49.5834 32.0851 50.1394C31.5304 52.9989 34.2245 55.9377 40.326 58.0823Z" fill="url(#paint40_linear_19_16467)"/>
<g style="mix-blend-mode:multiply">
<path d="M54.9061 203.596C35.4924 203.596 19.7237 187.79 19.7237 168.329C19.7237 148.869 35.4924 133.063 54.9061 133.063C74.3199 133.063 90.0886 148.869 90.0886 168.329C90.0886 187.79 74.3199 203.596 54.9061 203.596Z" fill="#DFE1FF"/>
</g>
<path d="M59.7397 201.054C40.326 201.054 24.5573 185.248 24.5573 165.788C24.5573 146.328 40.326 130.521 59.7397 130.521C79.1534 130.521 94.9222 146.328 94.9222 165.788C94.9222 185.168 79.1534 201.054 59.7397 201.054ZM59.7397 134.572C42.6239 134.572 28.6777 148.552 28.6777 165.708C28.6777 182.865 42.6239 196.844 59.7397 196.844C76.8555 196.844 90.8017 182.865 90.8017 165.708C90.8017 148.552 76.8555 134.572 59.7397 134.572Z" fill="#EEEFFF"/>
<path d="M59.7399 134.572C42.6241 134.572 28.6779 148.552 28.6779 165.708C28.6779 182.865 42.6241 196.844 59.7399 196.844C76.8556 196.844 90.8018 182.865 90.8018 165.708C90.8018 148.552 76.8556 134.572 59.7399 134.572Z" fill="#DFE1FF"/>
<path d="M59.7399 134.572C42.6241 134.572 28.6779 148.552 28.6779 165.708C28.6779 182.865 42.6241 196.844 59.7399 196.844C76.8556 196.844 90.8018 182.865 90.8018 165.708C90.8018 148.552 76.8556 134.572 59.7399 134.572Z" fill="url(#paint41_linear_19_16467)"/>
<g style="mix-blend-mode:multiply" opacity="0.7">
<path d="M68.8522 136.002C78.9949 141.165 85.968 151.649 85.968 163.802C85.968 180.959 72.0218 194.938 54.906 194.938C51.7364 194.938 48.7253 194.462 45.7935 193.588C49.9932 195.732 54.7476 196.924 59.7397 196.924C76.8554 196.924 90.8016 182.944 90.8016 165.788C90.8016 151.729 81.5306 139.894 68.8522 136.002Z" fill="#D1D6FF"/>
</g>
<path d="M351.311 381.908C351.311 378.719 349.038 377.429 346.276 379.011L235.929 442.472C233.167 444.055 230.894 447.95 230.894 451.138V538.48C230.894 541.669 233.167 542.959 235.929 541.377L346.3 477.915C349.062 476.333 351.336 472.414 351.336 469.249V381.908H351.311Z" fill="#EEEFFF"/>
<path d="M351.311 381.908C351.311 378.719 349.038 377.429 346.276 379.011L235.929 442.472C233.167 444.055 230.894 447.95 230.894 451.138V538.48C230.894 541.669 233.167 542.959 235.929 541.377L346.3 477.915C349.062 476.333 351.336 472.414 351.336 469.249V381.908H351.311Z" fill="url(#paint42_linear_19_16467)"/>
<path d="M344.32 396.463C344.32 393.761 342.389 392.641 340.018 394.004L246.294 448.337C243.923 449.7 241.992 453.035 241.992 455.737V525.674C241.992 528.376 243.923 529.496 246.294 528.132L340.018 473.8C342.389 472.436 344.32 469.101 344.32 466.399V396.463Z" fill="white"/>
<path d="M234.952 540.791V453.449C234.952 450.26 237.225 446.366 239.987 444.783L350.358 381.322C350.651 381.151 350.945 381.005 351.238 380.908C350.798 378.474 348.745 377.597 346.3 379.009L235.929 442.471C233.167 444.053 230.894 447.948 230.894 451.137V538.479C230.894 541.302 232.703 542.641 235.049 541.789C235.001 541.473 234.952 541.156 234.952 540.791Z" fill="#DFE1FF"/>
<path d="M246.294 456.662L291.103 430.908V464.16L246.294 489.939V456.662Z" fill="#DFE1FF"/>
<path d="M246.294 496.682L341.484 441.813V446.706L246.294 501.55V496.682Z" fill="#DFE1FF"/>
<path d="M246.294 506.443L341.484 451.575V456.467L246.294 511.312V506.443Z" fill="#DFE1FF"/>
<path d="M246.294 516.205L300.856 484.705V489.598L246.294 521.073V516.205Z" fill="#DFE1FF"/>
<path d="M294.867 435.654L341.484 408.756V424.603L294.867 451.502V435.654Z" fill="#DFE1FF"/>
<path d="M329.621 584.707L330.33 590.976C330.391 591.477 330.082 591.87 329.624 591.875L323.978 591.949C323.337 590.858 322.608 591.149 321.789 591.96L312.486 592.123C312.028 592.127 311.71 591.607 311.857 591.131C312.041 590.55 312.388 590.05 312.859 589.739C314.086 588.929 315.782 588.215 318.017 587.741C320.033 587.141 321.655 586.232 322.033 584.305L329.621 584.707Z" fill="#172145"/>
<path d="M324.486 586.972C325.395 586.972 327.466 586.972 327.466 586.972C330.447 586.972 329.973 585.853 329.851 583.395L328.724 554.788L329.946 512.115C330.019 509.656 328.064 507.612 325.619 507.539C323.175 507.441 318.31 509.389 318.261 511.847L319.826 554.836V555.007L319.875 586.068C320.313 586.972 320.909 586.972 324.486 586.972Z" fill="#21C4FD"/>
<path d="M317.41 589.638L318.144 595.904C318.207 596.405 317.899 596.799 317.441 596.806L311.796 596.903C311.15 595.814 310.422 596.108 309.607 596.922L300.304 597.121C299.847 597.127 299.527 596.608 299.671 596.132C299.853 595.55 300.198 595.049 300.668 594.736C301.892 593.921 303.585 593.201 305.818 592.718C307.832 592.109 309.45 591.195 309.82 589.267L317.41 589.638Z" fill="#172145"/>
<path d="M325.473 519.418C326.597 519.418 327.673 518.834 328.284 517.811L334.151 507.685C340.262 497.169 337.524 483.683 327.819 476.307L326.23 475.09C324.813 474.019 322.759 474.286 321.684 475.698C320.608 477.11 320.877 479.155 322.295 480.226L323.908 481.443C331.022 486.847 333.026 496.73 328.553 504.447L322.686 514.574C321.781 516.107 322.319 518.103 323.884 518.98C324.373 519.272 324.935 519.418 325.473 519.418Z" fill="#7956FB"/>
<path d="M329.628 523.191L329.946 512.115L312.101 505.299L312.248 515.085C310.316 515.474 308.776 517.081 308.654 519.15L306.21 557.977L306.602 590.548C306.797 592.861 307.794 592.337 311.967 592.337C314.948 592.337 316.223 591.911 316.736 591.741C318.716 591.083 317.723 589.038 317.552 586.969L315.157 557.904L319.263 531.638L327.282 527.086C328.699 526.258 329.579 524.798 329.628 523.191Z" fill="#40CCFD"/>
<g style="mix-blend-mode:multiply" opacity="0.3">
<path d="M328.284 517.811C327.673 518.858 326.597 519.418 325.473 519.418C324.91 519.418 324.373 519.272 323.859 518.98C322.319 518.079 321.781 516.107 322.661 514.574L328.528 504.447C329.506 502.767 330.142 500.99 330.533 499.189C330.508 502.134 330.679 505.08 331.071 507.977L331.511 512.212L328.284 517.811Z" fill="#6A47EB"/>
</g>
<path d="M330.802 459.389L316.795 467.446C310.585 471.024 306.748 477.621 306.748 484.754V524.457C312.443 528.425 327.722 522.899 330.777 516.691L329.873 508.001C329.408 504.544 329.237 501.063 329.359 497.582L330.802 459.389Z" fill="#7956FB"/>
<path d="M321.317 468.128H325.35V449.165H308.874V455.737C308.874 462.578 314.448 468.128 321.317 468.128Z" fill="#F4D5D5"/>
<path d="M319.801 471.292H319.924C321.806 471.292 323.321 469.783 323.321 467.909V457.539H316.428V467.909C316.403 469.783 317.919 471.292 319.801 471.292Z" fill="#F2B1B5"/>
<g style="mix-blend-mode:multiply" opacity="0.3">
<path d="M306.748 493.42C307.31 493.201 308.385 492.568 308.581 491.059L309.877 480.981C310.097 479.204 311.734 477.962 313.519 478.181C315.303 478.4 315.377 480.275 315.157 482.027L315.01 491.862C314.521 495.562 312.003 498.556 308.41 499.652C307.848 499.822 307.31 499.919 306.748 499.992V493.42Z" fill="#6A47EB"/>
</g>
<path d="M298.583 495.148L289.196 484.51C288.022 483.171 288.145 481.127 289.489 479.958C290.834 478.79 292.887 478.911 294.06 480.25L303.447 490.888C304.621 492.203 306.087 491.886 306.528 491.764C306.943 491.643 308.361 491.083 308.581 489.33L309.877 479.252C310.097 477.475 311.734 476.234 313.519 476.453C315.303 476.672 316.55 478.303 316.33 480.08L315.034 490.158C314.546 493.858 312.028 496.852 308.434 497.948C307.505 498.24 306.552 498.361 305.623 498.361C302.958 498.337 300.416 497.217 298.583 495.148Z" fill="#7956FB"/>
<path d="M295.6 482.003L294.06 480.25C292.887 478.911 290.834 478.79 289.489 479.958C288.145 481.127 288.022 483.171 289.196 484.51L291.078 486.628L295.6 482.003Z" fill="#F4D5D5"/>
<path d="M286.14 481.394C286.14 483.561 287.9 485.314 290.076 485.314C292.251 485.314 294.011 483.561 294.011 481.394C294.011 479.228 292.251 477.475 290.076 477.475C287.9 477.5 286.14 479.228 286.14 481.394Z" fill="#F4D5D5"/>
<path d="M286.702 474.627L291.665 479.812C291.983 480.153 292.52 480.153 292.863 479.836L292.887 479.812C293.229 479.496 293.229 478.96 292.911 478.619L287.949 473.434C287.631 473.094 287.093 473.094 286.751 473.41L286.727 473.434C286.385 473.751 286.36 474.286 286.702 474.627Z" fill="#F4D5D5"/>
<path d="M307.676 444.199C310.537 439.671 317.186 441.01 320.877 442.616C325.424 444.564 331.119 446.852 331.951 454.204C332.146 456.078 332 457.977 332 459.851C331.975 464.208 332.733 468.541 334.175 472.436C336.253 477.986 337.231 481.54 335.055 487.31C333.76 490.718 332.928 496.049 330.288 498.142C327.55 500.309 321.781 501.648 319.19 498.994C315.548 495.294 313.714 486.36 314.057 480.64C314.423 474.457 316.721 468.201 315.328 462.261C314.448 458.561 310.732 454.398 308.63 451.794C306.748 449.481 305.794 447.193 307.676 444.199Z" fill="#172145"/>
<path d="M182.513 116.592L196.197 108.416L187.658 94.1271C189.632 92.1132 191.283 89.8576 192.623 87.441L208.774 91.5091L212.661 76.0523L196.519 71.9842C196.489 69.2252 196.096 66.456 195.311 63.7473L209.6 55.2084L201.423 41.5239L187.135 50.0628C185.121 48.0892 182.865 46.4378 180.448 45.0985L184.517 28.9571L169.06 25.0702L164.992 41.2117C162.233 41.2419 159.464 41.6346 156.755 42.42L148.216 28.1314L134.531 36.3078L143.07 50.5965C141.097 52.6104 139.445 54.866 138.106 57.2827L121.965 53.2146L118.078 68.6713L134.219 72.7394C134.249 75.4985 134.642 78.2676 135.428 80.9763L121.139 89.5153L129.315 103.2L143.604 94.6608C145.618 96.6344 147.873 98.2859 150.29 99.6251L146.222 115.767L161.679 119.653L165.747 103.502C168.506 103.472 171.275 103.079 173.984 102.294L182.513 116.592ZM147.179 83.2319C141.177 73.1926 144.45 60.1827 154.489 54.1813C164.528 48.1798 177.538 51.4524 183.54 61.4917C189.541 71.5311 186.269 84.5409 176.229 90.5424C166.19 96.5539 153.18 93.2813 147.179 83.2319Z" fill="#F1F2FF"/>
<path d="M182.513 116.592L196.197 108.416L187.658 94.1271C189.632 92.1132 191.283 89.8576 192.623 87.441L208.774 91.5091L212.661 76.0523L196.519 71.9842C196.489 69.2252 196.096 66.456 195.311 63.7473L209.6 55.2084L201.423 41.5239L187.135 50.0628C185.121 48.0892 182.865 46.4378 180.448 45.0985L184.517 28.9571L169.06 25.0702L164.992 41.2117C162.233 41.2419 159.464 41.6346 156.755 42.42L148.216 28.1314L134.531 36.3078L143.07 50.5965C141.097 52.6104 139.445 54.866 138.106 57.2827L121.965 53.2146L118.078 68.6713L134.219 72.7394C134.249 75.4985 134.642 78.2676 135.428 80.9763L121.139 89.5153L129.315 103.2L143.604 94.6608C145.618 96.6344 147.873 98.2859 150.29 99.6251L146.222 115.767L161.679 119.653L165.747 103.502C168.506 103.472 171.275 103.079 173.984 102.294L182.513 116.592ZM147.179 83.2319C141.177 73.1926 144.45 60.1827 154.489 54.1813C164.528 48.1798 177.538 51.4524 183.54 61.4917C189.541 71.5311 186.269 84.5409 176.229 90.5424C166.19 96.5539 153.18 93.2813 147.179 83.2319Z" fill="url(#paint43_linear_19_16467)"/>
<defs>
<radialGradient id="paint0_radial_19_16467" cx="0" cy="0" r="1" gradientUnits="userSpaceOnUse" gradientTransform="translate(53.5333 291.5) rotate(90) scale(230.5 332)">
<stop offset="0.0625" stop-color="#BBAAFC" stop-opacity="0.3"/>
<stop offset="0.505208" stop-color="#40CCFD" stop-opacity="0.2"/>
<stop offset="0.828125" stop-color="#A0E6FE" stop-opacity="0.1"/>
<stop offset="1" stop-color="white" stop-opacity="0"/>
</radialGradient>
<linearGradient id="paint1_linear_19_16467" x1="308.201" y1="186.181" x2="283.182" y2="268.047" gradientUnits="userSpaceOnUse">
<stop offset="0.354167" stop-color="#DFE1FF"/>
<stop offset="1" stop-color="#2CC8FF" stop-opacity="0.05"/>
</linearGradient>
<linearGradient id="paint2_linear_19_16467" x1="-47.4647" y1="340.154" x2="186.466" y2="340.154" gradientUnits="userSpaceOnUse">
<stop offset="0.00505051" stop-color="#40CCFD"/>
<stop offset="0.9747" stop-color="#40CCFD"/>
</linearGradient>
<linearGradient id="paint3_linear_19_16467" x1="-44.7159" y1="339.579" x2="185.524" y2="339.579" gradientUnits="userSpaceOnUse">
<stop offset="0.00505051" stop-color="#40CCFD"/>
<stop offset="0.9747" stop-color="#40CCFD"/>
</linearGradient>
<linearGradient id="paint4_linear_19_16467" x1="-42.0622" y1="339.069" x2="184.583" y2="339.069" gradientUnits="userSpaceOnUse">
<stop offset="0.00505051" stop-color="#40CCFD"/>
<stop offset="0.9747" stop-color="#40CCFD"/>
</linearGradient>
<linearGradient id="paint5_linear_19_16467" x1="-39.5634" y1="338.62" x2="183.642" y2="338.62" gradientUnits="userSpaceOnUse">
<stop offset="0.00505051" stop-color="#40CCFD"/>
<stop offset="0.9747" stop-color="#40CCFD"/>
</linearGradient>
<linearGradient id="paint6_linear_19_16467" x1="-37.8485" y1="338.094" x2="182.7" y2="338.094" gradientUnits="userSpaceOnUse">
<stop offset="0.00505051" stop-color="#40CCFD"/>
<stop offset="0.9747" stop-color="#40CCFD"/>
</linearGradient>
<linearGradient id="paint7_linear_19_16467" x1="-36.1343" y1="337.792" x2="181.759" y2="337.792" gradientUnits="userSpaceOnUse">
<stop offset="0.00505051" stop-color="#40CCFD"/>
<stop offset="0.9747" stop-color="#40CCFD"/>
</linearGradient>
<linearGradient id="paint8_linear_19_16467" x1="-34.832" y1="337.545" x2="180.817" y2="337.545" gradientUnits="userSpaceOnUse">
<stop offset="0.00505051" stop-color="#40CCFD"/>
<stop offset="0.9747" stop-color="#40CCFD"/>
</linearGradient>
<linearGradient id="paint9_linear_19_16467" x1="-34.0245" y1="337.332" x2="179.876" y2="337.332" gradientUnits="userSpaceOnUse">
<stop offset="0.00505051" stop-color="#40CCFD"/>
<stop offset="0.9747" stop-color="#40CCFD"/>
</linearGradient>
<linearGradient id="paint10_linear_19_16467" x1="-33.8022" y1="337.143" x2="178.935" y2="337.143" gradientUnits="userSpaceOnUse">
<stop offset="0.00505051" stop-color="#40CCFD"/>
<stop offset="0.9747" stop-color="#40CCFD"/>
</linearGradient>
<linearGradient id="paint11_linear_19_16467" x1="-34.2155" y1="336.969" x2="177.993" y2="336.969" gradientUnits="userSpaceOnUse">
<stop offset="0.00505051" stop-color="#40CCFD"/>
<stop offset="0.9747" stop-color="#40CCFD"/>
</linearGradient>
<linearGradient id="paint12_linear_19_16467" x1="-35.426" y1="336.807" x2="177.052" y2="336.807" gradientUnits="userSpaceOnUse">
<stop offset="0.00505051" stop-color="#40CCFD"/>
<stop offset="0.9747" stop-color="#40CCFD"/>
</linearGradient>
<linearGradient id="paint13_linear_19_16467" x1="-37.1107" y1="336.654" x2="176.111" y2="336.654" gradientUnits="userSpaceOnUse">
<stop offset="0.00505051" stop-color="#40CCFD"/>
<stop offset="0.9747" stop-color="#40CCFD"/>
</linearGradient>
<linearGradient id="paint14_linear_19_16467" x1="-56.4325" y1="367.106" x2="179.518" y2="367.106" gradientUnits="userSpaceOnUse">
<stop offset="0.00505051" stop-color="#40CCFD"/>
<stop offset="0.9747" stop-color="#40CCFD"/>
</linearGradient>
<linearGradient id="paint15_linear_19_16467" x1="-52.3333" y1="366.787" x2="171.191" y2="366.787" gradientUnits="userSpaceOnUse">
<stop offset="0.00505051" stop-color="#40CCFD"/>
<stop offset="0.9747" stop-color="#40CCFD"/>
</linearGradient>
<linearGradient id="paint16_linear_19_16467" x1="-48.6899" y1="362.72" x2="166.552" y2="362.72" gradientUnits="userSpaceOnUse">
<stop offset="0.00505051" stop-color="#40CCFD"/>
<stop offset="0.9747" stop-color="#40CCFD"/>
</linearGradient>
<linearGradient id="paint17_linear_19_16467" x1="-40.6453" y1="363.865" x2="159.158" y2="363.865" gradientUnits="userSpaceOnUse">
<stop offset="0.00505051" stop-color="#40CCFD"/>
<stop offset="0.9747" stop-color="#40CCFD"/>
</linearGradient>
<linearGradient id="paint18_linear_19_16467" x1="59.1992" y1="327.255" x2="59.1992" y2="423.248" gradientUnits="userSpaceOnUse">
<stop offset="0.307292" stop-color="#40CCFD" stop-opacity="0.4"/>
<stop offset="0.439822" stop-color="#65D6FD" stop-opacity="0.323471"/>
<stop offset="1" stop-color="white" stop-opacity="0"/>
</linearGradient>
<linearGradient id="paint19_linear_19_16467" x1="59.2014" y1="328.116" x2="59.2014" y2="422.383" gradientUnits="userSpaceOnUse">
<stop stop-color="white"/>
<stop offset="0.432292" stop-color="white" stop-opacity="0"/>
</linearGradient>
<linearGradient id="paint20_linear_19_16467" x1="145.691" y1="285.795" x2="141.871" y2="294.287" gradientUnits="userSpaceOnUse">
<stop stop-color="#7956FB"/>
<stop offset="0.0001" stop-color="#6A47EB"/>
<stop offset="0.4256" stop-color="#6A47EB"/>
<stop offset="0.8102" stop-color="#6A47EB"/>
<stop offset="1" stop-color="#6A47EB"/>
</linearGradient>
<linearGradient id="paint21_linear_19_16467" x1="103.627" y1="232.402" x2="36.2812" y2="232.402" gradientUnits="userSpaceOnUse">
<stop stop-color="white"/>
<stop offset="0.2189" stop-color="#EDEDED"/>
<stop offset="0.6571" stop-color="#BEBEBE"/>
<stop offset="0.9625" stop-color="#999999"/>
</linearGradient>
<linearGradient id="paint22_linear_19_16467" x1="103.725" y1="168.329" x2="36.315" y2="168.329" gradientUnits="userSpaceOnUse">
<stop stop-color="white"/>
<stop offset="0.2189" stop-color="#EDEDED"/>
<stop offset="0.6571" stop-color="#BEBEBE"/>
<stop offset="0.9625" stop-color="#999999"/>
</linearGradient>
<linearGradient id="paint23_linear_19_16467" x1="103.933" y1="243.977" x2="36.3851" y2="243.977" gradientUnits="userSpaceOnUse">
<stop stop-color="white"/>
<stop offset="0.2189" stop-color="#EDEDED"/>
<stop offset="0.6571" stop-color="#BEBEBE"/>
<stop offset="0.9625" stop-color="#999999"/>
</linearGradient>
<linearGradient id="paint24_linear_19_16467" x1="103.626" y1="264.831" x2="36.2836" y2="264.831" gradientUnits="userSpaceOnUse">
<stop stop-color="white"/>
<stop offset="0.2189" stop-color="#EDEDED"/>
<stop offset="0.6571" stop-color="#BEBEBE"/>
<stop offset="0.9625" stop-color="#999999"/>
</linearGradient>
<linearGradient id="paint25_linear_19_16467" x1="103.383" y1="291.985" x2="36.2261" y2="291.985" gradientUnits="userSpaceOnUse">
<stop stop-color="white"/>
<stop offset="0.2189" stop-color="#EDEDED"/>
<stop offset="0.6571" stop-color="#BEBEBE"/>
<stop offset="0.9625" stop-color="#999999"/>
</linearGradient>
<linearGradient id="paint26_linear_19_16467" x1="103.569" y1="283.388" x2="36.272" y2="283.388" gradientUnits="userSpaceOnUse">
<stop stop-color="white"/>
<stop offset="0.2189" stop-color="#EDEDED"/>
<stop offset="0.6571" stop-color="#BEBEBE"/>
<stop offset="0.9625" stop-color="#999999"/>
</linearGradient>
<linearGradient id="paint27_linear_19_16467" x1="103.654" y1="254.192" x2="36.2916" y2="254.192" gradientUnits="userSpaceOnUse">
<stop stop-color="white"/>
<stop offset="0.2189" stop-color="#EDEDED"/>
<stop offset="0.6571" stop-color="#BEBEBE"/>
<stop offset="0.9625" stop-color="#999999"/>
</linearGradient>
<linearGradient id="paint28_linear_19_16467" x1="75.0527" y1="50.1394" x2="75.0527" y2="318.45" gradientUnits="userSpaceOnUse">
<stop offset="0.409774" stop-color="#40CCFD" stop-opacity="0.2"/>
<stop offset="1" stop-color="white" stop-opacity="0"/>
</linearGradient>
<linearGradient id="paint29_linear_19_16467" x1="123.443" y1="259.563" x2="-5.60057" y2="259.563" gradientUnits="userSpaceOnUse">
<stop stop-color="white"/>
<stop offset="0.2189" stop-color="#EDEDED"/>
<stop offset="0.6571" stop-color="#BEBEBE"/>
<stop offset="0.9625" stop-color="#999999"/>
</linearGradient>
<linearGradient id="paint30_linear_19_16467" x1="123.453" y1="287.726" x2="-5.60279" y2="287.726" gradientUnits="userSpaceOnUse">
<stop stop-color="white"/>
<stop offset="0.2189" stop-color="#EDEDED"/>
<stop offset="0.6571" stop-color="#BEBEBE"/>
<stop offset="0.9625" stop-color="#999999"/>
</linearGradient>
<linearGradient id="paint31_linear_19_16467" x1="123.42" y1="248.956" x2="-5.59813" y2="248.956" gradientUnits="userSpaceOnUse">
<stop stop-color="white"/>
<stop offset="0.2189" stop-color="#EDEDED"/>
<stop offset="0.6571" stop-color="#BEBEBE"/>
<stop offset="0.9625" stop-color="#999999"/>
</linearGradient>
<linearGradient id="paint32_linear_19_16467" x1="123.44" y1="299.552" x2="-5.60209" y2="299.552" gradientUnits="userSpaceOnUse">
<stop stop-color="white"/>
<stop offset="0.2189" stop-color="#EDEDED"/>
<stop offset="0.6571" stop-color="#BEBEBE"/>
<stop offset="0.9625" stop-color="#999999"/>
</linearGradient>
<linearGradient id="paint33_linear_19_16467" x1="123.438" y1="274.321" x2="-5.60053" y2="274.321" gradientUnits="userSpaceOnUse">
<stop stop-color="white"/>
<stop offset="0.2189" stop-color="#EDEDED"/>
<stop offset="0.6571" stop-color="#BEBEBE"/>
<stop offset="0.9625" stop-color="#999999"/>
</linearGradient>
<linearGradient id="paint34_linear_19_16467" x1="123.425" y1="97.143" x2="-5.59891" y2="97.143" gradientUnits="userSpaceOnUse">
<stop stop-color="white"/>
<stop offset="0.2189" stop-color="#EDEDED"/>
<stop offset="0.6571" stop-color="#BEBEBE"/>
<stop offset="0.9625" stop-color="#999999"/>
</linearGradient>
<linearGradient id="paint35_linear_19_16467" x1="123.454" y1="222.63" x2="-5.59962" y2="222.63" gradientUnits="userSpaceOnUse">
<stop stop-color="white"/>
<stop offset="0.2189" stop-color="#EDEDED"/>
<stop offset="0.6571" stop-color="#BEBEBE"/>
<stop offset="0.9625" stop-color="#999999"/>
</linearGradient>
<linearGradient id="paint36_linear_19_16467" x1="123.408" y1="238.595" x2="-5.59819" y2="238.595" gradientUnits="userSpaceOnUse">
<stop stop-color="white"/>
<stop offset="0.2189" stop-color="#EDEDED"/>
<stop offset="0.6571" stop-color="#BEBEBE"/>
<stop offset="0.9625" stop-color="#999999"/>
</linearGradient>
<linearGradient id="paint37_linear_19_16467" x1="123.388" y1="308.914" x2="-5.59077" y2="308.914" gradientUnits="userSpaceOnUse">
<stop stop-color="white"/>
<stop offset="0.2189" stop-color="#EDEDED"/>
<stop offset="0.6571" stop-color="#BEBEBE"/>
<stop offset="0.9625" stop-color="#999999"/>
</linearGradient>
<linearGradient id="paint38_linear_19_16467" x1="103.727" y1="184.178" x2="36.3166" y2="184.178" gradientUnits="userSpaceOnUse">
<stop stop-color="white"/>
<stop offset="0.2189" stop-color="#EDEDED"/>
<stop offset="0.6571" stop-color="#BEBEBE"/>
<stop offset="0.9625" stop-color="#999999"/>
</linearGradient>
<linearGradient id="paint39_linear_19_16467" x1="23.4885" y1="50.2193" x2="23.4885" y2="318.133" gradientUnits="userSpaceOnUse">
<stop stop-color="#40CCFD" stop-opacity="0.05"/>
<stop offset="1" stop-color="white" stop-opacity="0"/>
</linearGradient>
<linearGradient id="paint40_linear_19_16467" x1="46.0354" y1="0.0198669" x2="46.0354" y2="59.0355" gradientUnits="userSpaceOnUse">
<stop stop-color="#40CCFD"/>
<stop offset="0.59375" stop-color="white" stop-opacity="0"/>
<stop offset="1" stop-color="#98E3FE" stop-opacity="0.541667"/>
</linearGradient>
<linearGradient id="paint41_linear_19_16467" x1="59.7399" y1="134.572" x2="59.7399" y2="196.844" gradientUnits="userSpaceOnUse">
<stop offset="0.0520833" stop-color="#7956FB" stop-opacity="0.3"/>
<stop offset="0.723958" stop-color="#8FE1FE" stop-opacity="0.176374"/>
<stop offset="1" stop-color="white" stop-opacity="0"/>
</linearGradient>
<linearGradient id="paint42_linear_19_16467" x1="270.238" y1="392.635" x2="291.115" y2="542.053" gradientUnits="userSpaceOnUse">
<stop offset="0.67461" stop-color="#BBAAFC" stop-opacity="0.4"/>
<stop offset="1" stop-color="white" stop-opacity="0"/>
</linearGradient>
<linearGradient id="paint43_linear_19_16467" x1="165.369" y1="25.0702" x2="165.369" y2="119.653" gradientUnits="userSpaceOnUse">
<stop stop-color="#40CCFD" stop-opacity="0.1"/>
<stop offset="1" stop-color="white" stop-opacity="0"/>
</linearGradient>
<clipPath id="clip0_19_16467">
<rect width="157" height="172" fill="white" transform="translate(204.533 96)"/>
</clipPath>
<clipPath id="clip1_19_16467">
<rect width="242.896" height="114.903" fill="white" transform="translate(-56.4325 306.892)"/>
</clipPath>
<clipPath id="clip2_19_16467">
<rect width="141.083" height="95.9948" fill="white" transform="translate(-11.344 327.255)"/>
</clipPath>
</defs>
</svg>
