<svg width="10" height="10" viewBox="0 0 10 10" fill="none" xmlns="http://www.w3.org/2000/svg">
<path d="M1.37498 8.41507C2.10709 9.20866 3.08422 9.7348 4.15071 9.9098C4.43044 9.9595 4.71738 9.97123 5.00235 10C5.95439 9.99041 6.88475 9.71531 7.68831 9.20562C7.71193 9.18863 7.73957 9.17806 7.76852 9.17497C7.79747 9.17187 7.82672 9.17628 7.85341 9.1879C8.43581 9.40434 9.01886 9.61759 9.60192 9.83142L9.65498 9.85105C9.6859 9.86821 9.7214 9.87539 9.75658 9.87165C9.79176 9.8679 9.8249 9.85342 9.85151 9.83014C9.87514 9.80456 9.89 9.77212 9.89389 9.73755C9.89778 9.70297 9.8905 9.66794 9.87314 9.63777C9.74211 9.28597 9.61111 8.93376 9.48008 8.58109C9.3864 8.32804 9.29075 8.077 9.20231 7.82263C9.18887 7.77696 9.19403 7.72785 9.2167 7.68598C9.78694 6.79304 10.0577 5.74207 9.98973 4.68533C9.92178 3.6286 9.51866 2.62093 8.83872 1.80809C8.14104 0.936699 7.15633 0.340536 6.05972 0.125615C5.17698 -0.0784671 4.25473 -0.0331725 3.39631 0.256362C2.53789 0.545897 1.77719 1.06813 1.19941 1.76483C0.602971 2.43153 0.214132 3.25731 0.0804632 4.14111C-0.0601246 4.90491 -0.0160191 5.69118 0.209135 6.43454C0.43429 7.17789 0.833996 7.85694 1.37498 8.41507ZM4.42125 7.31193C4.42632 7.16105 4.48993 7.01794 4.59866 6.91299C4.70739 6.80804 4.85274 6.74951 5.00399 6.74951C5.15524 6.74951 5.30055 6.80804 5.40928 6.91299C5.51801 7.01794 5.58162 7.16105 5.58669 7.31193C5.58669 7.4662 5.52532 7.6141 5.41604 7.72317C5.30675 7.83225 5.15854 7.89351 5.00399 7.89351C4.84944 7.89351 4.70123 7.83225 4.59194 7.72317C4.48266 7.6141 4.42125 7.4662 4.42125 7.31193ZM3.98365 2.94778C4.00873 2.81281 4.06031 2.68408 4.13543 2.56911C4.21056 2.45413 4.30773 2.35524 4.42137 2.27792C4.535 2.2006 4.66287 2.14653 4.79755 2.11875C4.93222 2.09098 5.07105 2.09001 5.20607 2.11604C5.33979 2.14191 5.46702 2.19413 5.5803 2.26962C5.69357 2.3451 5.79067 2.44235 5.86587 2.5557C5.94107 2.66905 5.99288 2.79618 6.01829 2.92974C6.0437 3.0633 6.04219 3.20066 6.01385 3.33364C5.82977 4.10916 5.62864 4.88144 5.43407 5.655C5.41966 5.71385 5.40657 5.76152 5.39412 5.80076C5.38954 5.81383 5.3856 5.8262 5.38101 5.83731L5.37445 5.85376C5.32204 5.97277 5.248 5.97796 5.01151 5.97796H4.89883C4.70229 5.97796 4.6453 5.93473 4.59682 5.74249C4.41732 5.03323 4.23805 4.32362 4.05898 3.61349C3.98592 3.39965 3.96022 3.1725 3.98365 2.94778Z" fill="#7956FB"/>
</svg>
