<svg width="10" height="7" viewBox="0 0 10 7" fill="none" xmlns="http://www.w3.org/2000/svg">
<path d="M4.99788 0.0199832L7.46955 0.0333053L8.67349 0.0372045C8.81794 0.0351485 8.95873 0.0802671 9.07233 0.165064C9.18593 0.249862 9.26544 0.369159 9.29752 0.502992C9.30397 0.518927 9.30413 0.536675 9.29795 0.552706C9.29177 0.568737 9.27964 0.582031 9.26388 0.590236C8.18997 1.30006 7.11607 2.01104 6.04216 2.72308C5.921 2.8036 5.79422 2.87667 5.67235 2.95719C5.54197 3.0404 5.39516 3.09766 5.24081 3.12534C5.08647 3.15302 4.92782 3.15068 4.77448 3.11835C4.60823 3.09154 4.45036 3.02994 4.31225 2.93802C3.76876 2.57867 3.22313 2.22325 2.68314 1.85925C2.03879 1.42537 1.39936 0.984859 0.756416 0.54832C0.741016 0.540983 0.729019 0.52845 0.722688 0.513227C0.716357 0.498004 0.716127 0.481144 0.722089 0.465787C0.753708 0.333969 0.831355 0.216172 0.942368 0.131597C1.05338 0.0470212 1.19122 0.000675841 1.33351 0C2.00914 0.00266183 2.68619 0.00591763 3.36462 0.00991037L4.99861 0.0178712L4.99788 0.0199832Z" fill="#7956FB"/>
<path d="M4.811 6.98177L2.20489 6.97039L1.31121 6.96455C1.16796 6.96408 1.02923 6.91684 0.918188 6.83084C0.80715 6.74484 0.730556 6.62516 0.701201 6.49193C0.696137 6.47771 0.696287 6.46237 0.701628 6.44823C0.706969 6.4341 0.71718 6.42203 0.730611 6.41411C1.76577 5.72869 2.8002 5.04115 3.83396 4.3513C3.84695 4.33969 3.86414 4.3331 3.88197 4.3331C3.8998 4.3331 3.91694 4.33969 3.92993 4.3513C4.08165 4.45428 4.24212 4.54507 4.40969 4.62277C4.61178 4.70948 4.83174 4.75194 5.05342 4.74722C5.27511 4.7425 5.49286 4.69071 5.69066 4.59548C5.82401 4.525 5.95308 4.44738 6.07727 4.36316C6.08806 4.35347 6.10235 4.34805 6.1172 4.34805C6.13205 4.34805 6.14633 4.35347 6.15713 4.36316C7.18808 5.06233 8.21974 5.76095 9.2521 6.45879C9.26315 6.46478 9.2717 6.47416 9.27629 6.48544C9.28089 6.49671 9.28125 6.50903 9.27732 6.52053C9.24805 6.65682 9.16975 6.77931 9.05589 6.86674C8.94202 6.95417 8.79968 7.00122 8.65329 6.9998C7.95898 6.99581 7.26467 6.99239 6.57037 6.98973L4.811 6.98177Z" fill="#7956FB"/>
<path d="M10 1.57361L9.97899 5.46985L7.08716 3.50938L10 1.57361Z" fill="#7956FB"/>
<path d="M0.0210318 1.53384L2.91287 3.49366L0 5.42943L0.0210318 1.53384Z" fill="#7956FB"/>
</svg>
