<svg width="48" height="48" viewBox="0 0 48 48" fill="none" xmlns="http://www.w3.org/2000/svg">
    <path d="M47.9998 23.9998C47.9997 28.7463 46.5919 33.3862 43.9547 37.3326C41.3175 41.2791 37.5692 44.3549 33.1839 46.1712C28.7985 47.9875 23.973 48.4627 19.3176 47.5367C14.6621 46.6106 10.3859 44.3249 7.02946 40.9687C3.67307 37.6124 1.38727 33.3365 0.461198 28.6812C-0.464871 24.026 0.0103588 19.2007 1.82675 14.8155C3.64313 10.4303 6.71906 6.68208 10.6657 4.04499C14.6123 1.40789 19.2524 0.000327645 23.9991 0.000153358C27.1541 -0.0111434 30.2801 0.601781 33.1971 1.80388C36.1141 3.00598 38.7644 4.77339 40.9954 7.00423C43.2263 9.23506 44.9937 11.8853 46.1958 14.8022C47.398 17.719 48.0111 20.8449 47.9998 23.9998Z" fill="url(#paint0_linear_339_10729)"/>
    <path d="M12.8971 28.995C12.7209 28.8346 14.4727 19.0143 14.4727 19.0143C14.4727 19.0143 11.7647 12.1171 15.9541 10.3283C18.085 9.41884 24.385 7.36554 30.2612 10.1757C31.3539 10.6974 34.8595 12.2193 34.9106 19.2699C34.9521 24.9598 34.9617 30.575 34.9617 30.575C34.9617 30.575 23.3848 38.3693 12.8971 28.995Z" fill="#172145"/>
    <path d="M5.88855 39.7462C8.0935 42.2825 10.8065 44.3273 13.8521 45.7484C16.8976 47.1695 20.2077 47.9352 23.5679 47.9957C26.9282 48.0563 30.2637 47.4104 33.3585 46.0999C36.4533 44.7895 39.2383 42.8438 41.5333 40.3886C40.6009 37.4128 36.5375 35.5895 33.9281 34.3964C33.6708 34.2792 33.4063 34.1567 33.1508 34.0386L32.6529 33.8032L32.1805 33.5786C31.947 33.4685 31.7514 33.3724 31.6104 33.3045C29.7704 32.4233 29.0795 31.4002 28.8186 29.8995C28.6892 28.8373 28.6541 27.7656 28.7137 26.6972C28.8248 22.9961 29.3967 18.0464 29.3967 18.0464L20.4035 22.3378C20.4035 22.3378 20.408 26.6444 20.163 29.3382C20.178 30.0609 20.0273 30.7774 19.7224 31.4328C18.7987 31.9712 17.8353 32.4383 16.8407 32.8304C16.7014 32.892 16.5604 32.9528 16.4194 33.0145C16.2352 33.0938 16.0519 33.1741 15.8695 33.2499C14.812 33.7055 13.8092 34.1311 13.2417 34.4149C11.0465 35.4996 8.65917 36.6012 8.00529 37.2577C7.14311 37.9402 6.42385 38.7858 5.88855 39.7462Z" fill="#F4D5D5"/>
    <path d="M29.3967 18.0446C29.3967 18.0446 28.8247 22.9987 28.7146 26.6953C27.764 27.6854 26.6424 28.4957 25.4038 29.087C23.7023 29.5903 21.9045 29.6758 20.163 29.3364C20.408 26.6425 20.4044 22.336 20.4044 22.336L29.3967 18.0446Z" fill="#E8C5C5"/>
    <path d="M16.3171 13.4121C16.3171 13.4121 16.6528 25.3507 18.7784 27.062C21.4494 29.213 27.2454 26.2258 28.2562 25.4362C29.3957 24.5462 30.4875 15.8644 30.4875 15.8644L27.8438 11.1808C27.8438 11.1808 18.0029 11.521 16.3171 13.4121Z" fill="#F4D5D5"/>
    <path d="M29.6989 21.1101C29.6989 21.1101 27.4509 16.6643 27.502 15.0297C27.5532 13.395 27.962 13.2408 27.962 13.2408C27.962 13.2408 21.0108 15.4914 19.6845 16.0509C18.7675 16.4262 17.9543 17.0171 17.3139 17.7731C16.6735 18.5292 16.2246 19.4283 16.0053 20.3946C16.0564 20.1901 14.575 14.2119 16.0053 12.4239C17.4355 10.6359 27.0931 8.94932 28.5242 9.61375C29.9554 10.2782 32.3559 13.9564 31.5901 16.8177C31.2294 18.3527 30.5883 19.808 29.6989 21.1101Z" fill="#172145"/>
    <path d="M5.88855 39.7457C6.24457 40.1569 6.61433 40.5534 6.99796 40.9352C7.49322 41.4357 8.0117 41.9128 8.55338 42.3663C12.8726 46.0133 18.346 48.0094 23.9991 47.9991C27.268 48.0033 30.5031 47.3381 33.5051 46.0446C34.4651 45.6276 35.3976 45.1498 36.2969 44.6143C37.4059 43.9515 38.4592 43.1997 39.4464 42.3663C39.9858 41.9146 40.5042 41.4375 41.0018 40.9352C41.1781 40.759 41.3596 40.5741 41.5306 40.3881C41.3276 39.7672 41.0092 39.1902 40.5921 38.6874C40.1521 38.1537 39.6506 37.6737 39.0983 37.2572C37.8976 36.3752 36.6078 35.6214 35.25 35.0083C34.7838 34.788 34.3361 34.5836 33.9281 34.3915C33.4963 34.1968 33.0512 33.9861 32.6529 33.7984C32.4214 34.2143 32.1666 34.6167 31.8898 35.0038C31.2875 35.8497 30.5693 36.6067 29.7563 37.2527C28.9853 37.8615 28.1227 38.3443 27.2006 38.6829C26.0855 39.0834 24.9059 39.274 23.7214 39.2451C22.8493 39.2335 21.9888 39.0422 21.194 38.6829C20.4275 38.3304 19.7288 37.8463 19.1293 37.2527C18.4548 36.5835 17.8726 35.8272 17.3985 35.0038C17.023 34.3646 16.6964 33.698 16.4212 33.0097C15.1743 33.5472 13.9096 34.0805 13.2434 34.41C12.8407 34.6083 12.4318 34.8082 12.0291 35.0038C10.6117 35.6072 9.26325 36.3612 8.00701 37.2527C7.57343 37.6836 7.0218 38.1392 6.56003 38.6829C6.28404 39.0014 6.05769 39.3597 5.88855 39.7457Z" fill="#7956FB"/>
    <path d="M15.8704 33.2485C16.5366 35.1545 18.5334 39.4654 23.0569 39.8575C27.2384 40.2233 30.7924 38.214 33.1507 34.0327L32.6528 33.7975L32.1804 33.5727C31.4145 34.8501 30.3801 35.9458 29.1488 36.7839C27.9175 37.6219 26.5187 38.1824 25.0493 38.4264C20.2527 39.2336 17.8161 34.9281 16.8414 32.8246C16.7022 32.8863 16.5612 32.9471 16.4202 33.0088C16.236 33.0925 16.0528 33.1727 15.8704 33.2485Z" fill="#F7F1F6"/>
    <defs>
        <linearGradient id="paint0_linear_339_10729" x1="0" y1="23.9989" x2="48" y2="23.9989" gradientUnits="userSpaceOnUse">
            <stop stop-color="#88DFFD"/>
            <stop offset="0.266" stop-color="#69D6FD"/>
            <stop offset="0.531" stop-color="#52D0FD"/>
            <stop offset="0.781" stop-color="#44CDFD"/>
            <stop offset="1" stop-color="#40CCFD"/>
        </linearGradient>
    </defs>
</svg>
