<svg width="48" height="48" viewBox="0 0 48 48" fill="none" xmlns="http://www.w3.org/2000/svg">
<path d="M2.81462e-05 24C-0.00885116 29.7891 2.08342 35.3849 5.88833 39.748C5.96939 39.8422 6.05054 39.933 6.13248 40.0237C8.35594 42.5021 11.0706 44.4907 14.104 45.8634C17.1374 47.2361 20.4233 47.9627 23.7526 47.9971C27.082 48.0315 30.3821 47.373 33.4432 46.0632C36.5043 44.7535 39.2595 42.8213 41.5337 40.3894C41.8861 40.0141 42.2253 39.6254 42.5504 39.228C44.9915 36.2543 46.6819 32.7372 47.4791 28.9734C48.2763 25.2095 48.157 21.3093 47.1312 17.6012C46.1054 13.8932 44.2033 10.4859 41.585 7.6669C38.9668 4.84791 35.7092 2.69983 32.0868 1.40346C28.4645 0.107091 24.5837 -0.2994 20.7713 0.218187C16.959 0.735774 13.327 2.16217 10.1814 4.37739C7.0358 6.59262 4.46887 9.5316 2.69696 12.9466C0.925053 16.3617 6.85344e-05 20.1526 2.81462e-05 24Z" fill="url(#paint0_linear_19_16703)"/>
<path d="M42.5505 39.2265C42.2254 39.6239 41.8845 40.0126 41.5338 40.3879C39.2596 42.8199 36.5044 44.752 33.4432 46.0618C30.382 47.3715 27.0819 48.0301 23.7525 47.9956C20.4231 47.9611 17.1373 47.2343 14.1039 45.8615C11.0705 44.4887 8.3559 42.4999 6.13257 40.0214C6.47852 38.7139 6.98511 37.4542 7.64092 36.2713C7.72553 36.2076 7.81689 36.1534 7.91325 36.1093C7.94496 36.0935 7.98195 36.074 8.01983 36.059C8.28416 35.9304 8.66481 35.7709 9.12474 35.5894C9.25602 35.5392 9.39435 35.4864 9.53797 35.43C9.56264 35.4203 9.59082 35.4105 9.61637 35.3982C10.2331 35.1638 10.938 34.9004 11.6975 34.6255C11.723 34.6187 11.7481 34.6101 11.7724 34.5999L12.324 34.4026L12.6895 34.2712C12.9116 34.1928 13.1372 34.1117 13.3627 34.0333L14.2923 33.7083C14.8782 33.5047 15.4509 33.3039 15.9892 33.1197C16.6271 32.9003 17.2131 32.7029 17.7109 32.5346H17.7171C18.6748 32.2121 19.2943 32.0061 19.2943 32.0061L19.548 29.6517L20.2582 23.0434L30.4153 21.0592C30.4153 21.0592 30.4435 24.0548 30.5034 26.8558C30.5439 29.0507 30.6065 31.1285 30.685 31.5576C31.0823 31.7796 31.6708 32.0649 32.3722 32.39C32.788 32.5812 33.2454 32.7875 33.7247 33.0007C34.3159 33.2651 34.9423 33.5356 35.5749 33.8149L35.8393 33.9268C36.0155 34.0052 36.1918 34.0801 36.3618 34.1559C37.316 34.5718 38.2527 34.9822 39.0633 35.3453C39.2104 35.414 39.354 35.4803 39.4914 35.5393C39.6677 35.6204 39.8298 35.6987 39.9866 35.771L40.2086 35.8775C40.4624 35.9964 40.6844 36.1057 40.8721 36.2061C40.9162 36.2282 40.9602 36.253 41.0007 36.275C41.1977 36.3667 41.3809 36.4852 41.5452 36.6273C41.9779 37.4528 42.3152 38.3248 42.5505 39.2265Z" fill="#F4D5D5"/>
<path d="M19.5479 29.6505C20.9471 29.8345 22.3665 29.7973 23.7542 29.5404C26.1535 29.0858 28.4433 28.1754 30.4997 26.8583C30.4433 24.0538 30.2522 17.8974 30.2522 17.8974L20.258 23.0457L19.5479 29.6505Z" fill="#E8C5C5"/>
<path d="M42.5515 39.2313C42.2255 39.6269 41.8836 40.0137 41.5329 40.3891C39.259 42.8212 36.5039 44.7537 33.4429 46.0637C30.3818 47.3737 27.0818 48.0326 23.7524 47.9985C20.423 47.9643 17.1371 47.2379 14.1036 45.8654C11.07 44.4929 8.35517 42.5042 6.13159 40.0259C6.47582 38.7176 6.9826 37.4576 7.64005 36.2752C7.72512 36.2119 7.8163 36.1573 7.91227 36.1122C7.94684 36.094 7.98252 36.0778 8.01896 36.0638C8.28329 35.9334 8.66296 35.7738 9.12377 35.5905C9.25769 35.5421 9.39254 35.4884 9.53968 35.432C9.56605 35.4238 9.59195 35.4141 9.61723 35.403C10.2287 35.1668 10.9389 34.9015 11.6957 34.6283C11.7248 34.6204 11.7486 34.6126 11.7733 34.6038C11.9495 34.5386 12.1398 34.4698 12.324 34.4046C12.4455 34.3632 12.568 34.3165 12.6905 34.2743C12.9108 34.1967 13.1389 34.1147 13.3636 34.0372C13.6728 33.9271 13.9866 33.8168 14.2923 33.7111C14.88 33.5076 15.45 33.3075 15.9883 33.1243C16.213 33.0467 16.429 32.9737 16.6369 32.8997C16.7594 32.8592 16.8774 32.8187 16.9955 32.7781L17.4598 32.623L17.7091 32.5349C17.7091 32.5349 17.7091 32.5349 17.7171 32.5349L21.6996 34.2637L25.2055 35.7843L29.2373 33.8759L32.3687 32.3965C32.6903 32.5428 33.0365 32.7024 33.4039 32.861C33.5097 32.9103 33.6155 32.9586 33.7221 33.0036C34.3133 33.2679 34.9362 33.542 35.5723 33.8186C35.6605 33.8557 35.7485 33.8928 35.8366 33.9333C36.0128 34.0108 36.1891 34.0838 36.3583 34.1613C37.3125 34.5772 38.2499 34.9853 39.057 35.3475C39.2033 35.4171 39.3504 35.4822 39.4887 35.5438C39.6606 35.6249 39.8236 35.7024 39.9822 35.7755C40.0597 35.8125 40.1329 35.8496 40.2025 35.8822C40.4598 36.0003 40.6792 36.1104 40.8668 36.2118C40.9115 36.2327 40.955 36.2558 40.9972 36.2813C41.1935 36.3731 41.3762 36.4918 41.5399 36.6338C41.975 37.4583 42.3145 38.3297 42.5515 39.2313Z" fill="#7956FB"/>
<path d="M42.5505 39.2267C42.2254 39.624 41.8845 40.0127 41.5338 40.3881C39.2596 42.82 36.5044 44.7522 33.4432 46.0619C30.382 47.3716 27.0819 48.0302 23.7525 47.9957C20.4231 47.9613 17.1373 47.2344 14.1039 45.8616C11.0705 44.4888 8.3559 42.5 6.13257 40.0215C6.47852 38.714 6.98511 37.4543 7.64092 36.2715C7.72553 36.2077 7.81689 36.1535 7.91325 36.1095C7.94496 36.0936 7.98195 36.0741 8.01983 36.0591C8.28416 35.9305 8.66481 35.7711 9.12474 35.5895C9.25602 35.5393 9.39435 35.4865 9.53797 35.4301C9.56264 35.4205 9.59082 35.4106 9.61637 35.3983C10.2331 35.1639 10.938 34.9005 11.6975 34.6256C11.723 34.6188 11.7481 34.6102 11.7724 34.6L12.324 34.4028L12.6895 34.2713C12.9116 34.1929 13.1372 34.1118 13.3627 34.0334L14.2923 33.7084C14.8782 33.5048 15.4509 33.304 15.9892 33.1198C16.2112 33.0449 16.4298 32.9692 16.6369 32.8978C17.0255 32.7657 17.3849 32.644 17.7109 32.5347L25.7076 43.678L32.3687 32.3902C32.6912 32.5373 33.0384 32.6968 33.4049 32.8563C33.508 32.9065 33.6145 32.9542 33.7211 33.0009C34.3123 33.2652 34.9389 33.5358 35.5715 33.8151L35.8358 33.9269C36.012 34.0054 36.1882 34.0803 36.3583 34.156C37.3125 34.5719 38.2491 34.9824 39.0597 35.3454C39.2068 35.4141 39.3504 35.4804 39.4879 35.5394C39.6641 35.6205 39.8262 35.6988 39.9831 35.7711L40.2051 35.8776C40.4588 35.9965 40.6809 36.1058 40.8686 36.2063C40.9126 36.2283 40.9567 36.2531 40.9972 36.2751C41.1941 36.3668 41.3774 36.4853 41.5417 36.6275C41.9757 37.4527 42.3141 38.3247 42.5505 39.2267Z" fill="#40CCFD"/>
<path d="M17.7074 32.5298L19.4696 30.4151L25.2063 35.7785C25.2063 35.7785 20.1057 39.5319 20.0669 39.4139C20.0282 39.2958 17.7074 32.5298 17.7074 32.5298Z" fill="#F7F1F6"/>
<path d="M32.3687 32.3901L30.5959 39.2901L25.2046 35.7799L30.6814 31.5577C31.0788 31.7797 31.6674 32.065 32.3687 32.3901Z" fill="#F7F1F6"/>
<path d="M15.5161 13.0843C15.5161 13.0843 14.4589 16.6844 15.673 18.6404C16.8872 20.5965 18.0599 20.8318 18.0599 20.8318L17.5902 11.5978L15.5161 13.0843Z" fill="#172145"/>
<path d="M16.317 13.4155C16.317 13.4155 16.6527 25.3552 18.7779 27.0663C21.4493 29.2171 27.2452 26.2293 28.2567 25.4398C29.3959 24.5508 30.4876 15.8684 30.4876 15.8684L27.8443 11.1845C27.8443 11.1845 18.0034 11.522 16.317 13.4155Z" fill="#F4D5D5"/>
<path d="M27.0944 11.7792C27.0944 11.7792 14.2914 16.7864 13.405 16.3168C12.5186 15.8472 14.2403 14.3503 14.2403 14.3503C14.2403 14.3503 10.0683 15.0093 10.7987 13.8093C11.5291 12.6092 14.4174 11.7827 14.4174 11.7827C14.4174 11.7827 11.3398 11.1043 12.9566 9.85225C14.5734 8.60021 23.7939 5.34015 27.4064 6.56576C29.4928 7.19222 29.6973 10.1659 29.6973 10.1659C29.6973 10.1659 33.8709 10.7396 34.3405 12.3564C34.8101 13.9732 32.619 19.6598 30.2709 20.0774C28.4452 20.0254 29.5933 15.3301 29.5933 15.3301C28.8117 15.1903 28.0869 14.828 27.5059 14.2868C27.1956 13.4887 27.0554 12.6346 27.0944 11.7792Z" fill="#172145"/>
<defs>
<linearGradient id="paint0_linear_19_16703" x1="0" y1="23.9992" x2="48" y2="23.9992" gradientUnits="userSpaceOnUse">
<stop stop-color="#7956FB"/>
<stop offset="0.615" stop-color="#8465FB"/>
<stop offset="0.871" stop-color="#8B6DFC"/>
</linearGradient>
</defs>
</svg>
