<svg width="10" height="11" viewBox="0 0 10 11" fill="none" xmlns="http://www.w3.org/2000/svg">
<path d="M0.00426618 3.51348C-0.0225059 2.96253 0.0770099 2.41276 0.294827 1.90835C0.512645 1.40395 0.842721 0.958912 1.25856 0.6089C1.40747 0.486055 1.54758 0.351467 1.69785 0.230704C1.76474 0.155618 1.84664 0.0961101 1.93792 0.0563482C2.02921 0.0165862 2.12777 -0.00250261 2.22692 0.000262738C2.32606 0.00302808 2.42347 0.0276535 2.51252 0.0724452C2.60156 0.117237 2.68016 0.181144 2.74297 0.259848C3.29894 0.822814 3.71131 1.5174 3.94376 2.28231C4.00005 2.47007 4.0005 2.67073 3.94504 2.85876C3.88958 3.04678 3.78076 3.21363 3.63242 3.33794C3.45004 3.50959 3.25933 3.6717 3.06109 3.82373C2.85716 3.93913 2.70484 4.131 2.63605 4.35917C2.56726 4.58734 2.58736 4.83401 2.69219 5.04727C2.91947 5.61552 3.24562 6.1367 3.65473 6.5853C4.05084 7.10644 4.52731 7.55776 5.06535 7.92135C5.19122 7.99792 5.32495 8.05995 5.46407 8.10655C5.62222 8.16454 5.79391 8.17131 5.95591 8.12587C6.11792 8.08043 6.26237 7.98501 6.36971 7.85256C6.5801 7.63533 6.80276 7.43088 7.03648 7.24037C7.18524 7.11185 7.36894 7.03344 7.5627 7.01569C7.75645 6.99793 7.95085 7.04181 8.11948 7.14124C8.77317 7.48621 9.34419 7.97542 9.79142 8.57371C9.86788 8.6532 9.92588 8.74934 9.96109 8.85498C9.99631 8.96063 10.0078 9.07302 9.99481 9.18387C9.9818 9.29472 9.9446 9.40107 9.88595 9.49514C9.82729 9.5892 9.7487 9.66848 9.65603 9.7271C9.37805 9.98805 9.08631 10.2333 8.78216 10.4615C8.14931 10.8908 7.38707 11.0726 6.63441 10.9737C5.68436 10.8473 4.78665 10.4549 4.0399 9.83961C2.92084 8.95815 1.95212 7.89249 1.17324 6.68595C0.709902 6.02102 0.368803 5.27489 0.166713 4.48439C0.0793941 4.11099 0.0387875 3.72447 0.00426618 3.51348Z" fill="#7956FB"/>
</svg>
